<svg width="120" height="41" viewBox="0 0 120 41" fill="none" xmlns="http://www.w3.org/2000/svg">
<path d="M110.135 0.499886H9.53468C9.16798 0.499886 8.80568 0.499886 8.43995 0.501886C8.1338 0.503886 7.83009 0.509696 7.521 0.514586C6.84951 0.522488 6.17961 0.581562 5.5171 0.691296C4.85552 0.803418 4.21467 1.0148 3.61622 1.3183C3.0185 1.62436 2.47235 2.02205 1.99757 2.49696C1.5203 2.97052 1.12246 3.5179 0.81935 4.11805C0.5154 4.71699 0.304641 5.35882 0.19435 6.02137C0.0830109 6.68307 0.0230984 7.35241 0.01515 8.02337C0.00587 8.32997 0.00489 8.63759 0 8.94423V32.0585C0.00489 32.369 0.00587 32.6698 0.01515 32.9804C0.0231008 33.6513 0.0830134 34.3206 0.19435 34.9823C0.304336 35.6452 0.515108 36.2874 0.81935 36.8866C1.12233 37.4848 1.52022 38.03 1.99757 38.5009C2.47054 38.9779 3.01705 39.3759 3.61622 39.6796C4.21467 39.9839 4.85545 40.1965 5.5171 40.3104C6.17972 40.4192 6.84956 40.4783 7.521 40.4872C7.83009 40.494 8.1338 40.4979 8.43995 40.4979C8.80567 40.4999 9.168 40.4999 9.53468 40.4999H110.135C110.494 40.4999 110.859 40.4999 111.219 40.4979C111.523 40.4979 111.836 40.494 112.141 40.4872C112.811 40.4788 113.479 40.4197 114.141 40.3104C114.804 40.1957 115.448 39.9831 116.049 39.6796C116.647 39.3757 117.193 38.9777 117.666 38.5009C118.142 38.0281 118.541 37.4833 118.848 36.8866C119.15 36.287 119.358 35.6448 119.467 34.9823C119.578 34.3205 119.64 33.6514 119.652 32.9804C119.656 32.6698 119.656 32.369 119.656 32.0585C119.664 31.6952 119.664 31.3339 119.664 30.9647V10.036C119.664 9.66981 119.664 9.30653 119.656 8.94423C119.656 8.63759 119.656 8.32997 119.652 8.02333C119.64 7.35231 119.578 6.68312 119.467 6.02133C119.358 5.35917 119.149 4.71739 118.848 4.11801C118.23 2.91508 117.252 1.93591 116.049 1.31821C115.448 1.01545 114.804 0.804126 114.141 0.691206C113.48 0.580989 112.811 0.521894 112.141 0.514446C111.836 0.509566 111.523 0.503706 111.219 0.501756C110.859 0.499756 110.494 0.499756 110.135 0.499756V0.499886Z" fill="#A6A6A6"/>
<path d="M8.44487 39.625C8.14019 39.625 7.84287 39.6211 7.54058 39.6143C6.91436 39.6061 6.2896 39.5516 5.67144 39.4512C5.09503 39.3519 4.53664 39.1673 4.0147 38.9033C3.49754 38.6415 3.02585 38.2983 2.6177 37.8867C2.20364 37.48 1.85891 37.0082 1.59719 36.4902C1.33258 35.9688 1.14945 35.4099 1.05419 34.833C0.951311 34.2131 0.895651 33.5863 0.887687 32.958C0.881347 32.7471 0.873047 32.0449 0.873047 32.0449V8.94434C0.873047 8.94434 0.881887 8.25293 0.887737 8.0498C0.895363 7.42248 0.950699 6.79665 1.05327 6.17773C1.14871 5.59925 1.33197 5.03875 1.59673 4.51563C1.85749 3.99794 2.2003 3.52586 2.61187 3.11768C3.02297 2.70562 3.49617 2.3606 4.01421 2.09521C4.53495 1.83209 5.09228 1.64873 5.66753 1.55127C6.28772 1.44984 6.91465 1.395 7.54304 1.38721L8.44536 1.375H111.214L112.127 1.3877C112.75 1.3951 113.371 1.44945 113.985 1.55029C114.566 1.64898 115.13 1.83362 115.656 2.09814C116.694 2.63299 117.539 3.47916 118.071 4.51807C118.332 5.03758 118.512 5.59351 118.607 6.16699C118.71 6.79099 118.768 7.42174 118.78 8.0542C118.783 8.3374 118.783 8.6416 118.783 8.94434C118.791 9.31934 118.791 9.67627 118.791 10.0361V30.9648C118.791 31.3281 118.791 31.6826 118.783 32.04C118.783 32.3652 118.783 32.6631 118.779 32.9697C118.768 33.5909 118.711 34.2104 118.608 34.8232C118.515 35.4043 118.333 35.9675 118.068 36.4932C117.805 37.0056 117.462 37.4733 117.053 37.8789C116.644 38.2927 116.172 38.6379 115.653 38.9014C115.128 39.1674 114.566 39.3527 113.985 39.4512C113.367 39.5522 112.742 39.6067 112.116 39.6143C111.823 39.6211 111.517 39.625 111.219 39.625L110.135 39.627L8.44487 39.625Z" fill="black"/>
<path d="M24.769 20.8011C24.7797 19.9664 25.0014 19.148 25.4135 18.4221C25.8255 17.6961 26.4145 17.0862 27.1256 16.649C26.6738 16.0038 26.0779 15.4729 25.385 15.0983C24.6922 14.7238 23.9216 14.516 23.1344 14.4913C21.4552 14.3151 19.8272 15.4962 18.9715 15.4962C18.0992 15.4962 16.7817 14.5088 15.363 14.538C14.4453 14.5677 13.551 14.8345 12.7671 15.3126C11.9832 15.7906 11.3365 16.4636 10.8901 17.2659C8.95607 20.6143 10.3987 25.5354 12.2513 28.242C13.1782 29.5673 14.2615 31.0478 15.6789 30.9953C17.066 30.9377 17.584 30.1108 19.2583 30.1108C20.9171 30.1108 21.4031 30.9953 22.8493 30.9619C24.3377 30.9377 25.2754 29.6306 26.1698 28.2927C26.8358 27.3484 27.3483 26.3047 27.6882 25.2002C26.8235 24.8345 26.0856 24.2223 25.5665 23.44C25.0474 22.6577 24.77 21.7399 24.769 20.8011Z" fill="white"/>
<path d="M22.0376 12.7113C22.8491 11.7371 23.2489 10.4849 23.1521 9.2207C21.9123 9.35092 20.767 9.94348 19.9445 10.8803C19.5424 11.338 19.2344 11.8704 19.0381 12.4472C18.8419 13.024 18.7612 13.6337 18.8008 14.2417C19.4209 14.2481 20.0344 14.1137 20.5951 13.8486C21.1558 13.5835 21.649 13.1946 22.0376 12.7113Z" fill="white"/>
<path d="M42.3022 27.6397H37.5688L36.4321 30.9961H34.4272L38.9106 18.5781H40.9936L45.477 30.9961H43.438L42.3022 27.6397ZM38.0591 26.0908H41.8111L39.9615 20.6436H39.9097L38.0591 26.0908Z" fill="white"/>
<path d="M55.1597 26.4695C55.1597 29.2829 53.6538 31.0905 51.3814 31.0905C50.8057 31.1207 50.2332 30.9881 49.7294 30.7079C49.2256 30.4278 48.8109 30.0114 48.5327 29.5065H48.4897V33.9909H46.6313V21.9421H48.4302V23.448H48.4644C48.7553 22.9455 49.1771 22.5313 49.6847 22.2495C50.1923 21.9676 50.7669 21.8287 51.3472 21.8474C53.645 21.8474 55.1597 23.6638 55.1597 26.4695ZM53.2495 26.4695C53.2495 24.6365 52.3023 23.4314 50.857 23.4314C49.437 23.4314 48.482 24.6618 48.482 26.4695C48.482 28.2937 49.437 29.5154 50.857 29.5154C52.3023 29.5154 53.2495 28.3191 53.2495 26.4695Z" fill="white"/>
<path d="M65.1245 26.4694C65.1245 29.2829 63.6187 31.0905 61.3462 31.0905C60.7706 31.1206 60.1981 30.988 59.6943 30.7079C59.1905 30.4278 58.7758 30.0114 58.4976 29.5065H58.4546V33.9909H56.5962V21.9421H58.395V23.448H58.4292C58.7201 22.9455 59.1419 22.5313 59.6495 22.2495C60.1571 21.9676 60.7317 21.8287 61.312 21.8474C63.6099 21.8474 65.1245 23.6638 65.1245 26.4694ZM63.2144 26.4694C63.2144 24.6364 62.2671 23.4314 60.8218 23.4314C59.4019 23.4314 58.4468 24.6618 58.4468 26.4694C58.4468 28.2937 59.4019 29.5153 60.8218 29.5153C62.2671 29.5153 63.2144 28.3191 63.2144 26.4694H63.2144Z" fill="white"/>
<path d="M71.7105 27.5362C71.8482 28.7676 73.0445 29.5762 74.6792 29.5762C76.2456 29.5762 77.3726 28.7676 77.3726 27.6572C77.3726 26.6934 76.6929 26.1162 75.0835 25.7207L73.4742 25.333C71.1939 24.7822 70.1353 23.7158 70.1353 21.9854C70.1353 19.8428 72.0025 18.3711 74.6538 18.3711C77.2778 18.3711 79.0767 19.8428 79.1372 21.9854H77.2612C77.1489 20.7461 76.1245 19.9981 74.6274 19.9981C73.1304 19.9981 72.106 20.7549 72.106 21.8565C72.106 22.7344 72.7603 23.251 74.3608 23.6465L75.729 23.9824C78.2769 24.5849 79.3355 25.6084 79.3355 27.4248C79.3355 29.748 77.4849 31.2031 74.5415 31.2031C71.7876 31.2031 69.9282 29.7822 69.8081 27.5361L71.7105 27.5362Z" fill="white"/>
<path d="M83.3462 19.7998V21.9424H85.0679V23.4141H83.3462V28.4053C83.3462 29.1807 83.6909 29.542 84.4477 29.542C84.6521 29.5384 84.8562 29.5241 85.0591 29.499V30.9619C84.7188 31.0255 84.3729 31.0543 84.0268 31.0478C82.1938 31.0478 81.479 30.3593 81.479 28.6035V23.4141H80.1626V21.9424H81.479V19.7998H83.3462Z" fill="white"/>
<path d="M86.0649 26.4697C86.0649 23.6211 87.7427 21.8311 90.3589 21.8311C92.9839 21.8311 94.6538 23.6211 94.6538 26.4697C94.6538 29.3262 92.9927 31.1084 90.3589 31.1084C87.726 31.1084 86.0649 29.3262 86.0649 26.4697ZM92.7602 26.4697C92.7602 24.5156 91.8647 23.3623 90.3589 23.3623C88.853 23.3623 87.9585 24.5244 87.9585 26.4697C87.9585 28.4316 88.853 29.5762 90.3589 29.5762C91.8647 29.5762 92.7602 28.4316 92.7602 26.4697H92.7602Z" fill="white"/>
<path d="M96.186 21.942H97.9585V23.483H98.0015C98.1214 23.0017 98.4034 22.5764 98.8 22.2785C99.1966 21.9806 99.6836 21.8284 100.179 21.8473C100.393 21.8465 100.607 21.8698 100.816 21.9166V23.6549C100.546 23.5723 100.264 23.5343 99.981 23.5426C99.711 23.5316 99.4418 23.5792 99.192 23.6821C98.9421 23.785 98.7175 23.9408 98.5335 24.1386C98.3496 24.3365 98.2106 24.5719 98.1262 24.8286C98.0417 25.0852 98.0139 25.3571 98.0444 25.6256V30.9957H96.186L96.186 21.942Z" fill="white"/>
<path d="M109.384 28.3369C109.134 29.9805 107.534 31.1084 105.486 31.1084C102.852 31.1084 101.217 29.3437 101.217 26.5127C101.217 23.6729 102.861 21.8311 105.408 21.8311C107.913 21.8311 109.488 23.5518 109.488 26.2969V26.9336H103.093V27.0459C103.064 27.3791 103.105 27.7148 103.216 28.0306C103.326 28.3464 103.502 28.6352 103.732 28.8778C103.963 29.1203 104.242 29.3111 104.552 29.4374C104.861 29.5637 105.195 29.6226 105.529 29.6103C105.968 29.6515 106.409 29.5498 106.785 29.3203C107.162 29.0909 107.455 28.746 107.62 28.3369L109.384 28.3369ZM103.102 25.6348H107.628C107.645 25.3352 107.6 25.0354 107.495 24.7541C107.39 24.4729 107.229 24.2164 107.02 24.0006C106.812 23.7849 106.561 23.6145 106.283 23.5003C106.006 23.3861 105.708 23.3305 105.408 23.3369C105.105 23.3351 104.805 23.3933 104.525 23.508C104.245 23.6227 103.99 23.7918 103.776 24.0054C103.562 24.2191 103.392 24.473 103.276 24.7527C103.16 25.0323 103.101 25.3321 103.102 25.6348V25.6348Z" fill="white"/>
<path d="M37.8262 9.2304C38.2158 9.20244 38.6067 9.2613 38.9709 9.40274C39.335 9.54417 39.6632 9.76465 39.9317 10.0483C40.2003 10.3319 40.4026 10.6716 40.524 11.0429C40.6454 11.4141 40.6829 11.8077 40.6338 12.1952C40.6338 14.1015 39.6035 15.1972 37.8262 15.1972H35.6709V9.2304H37.8262ZM36.5976 14.3534H37.7226C38.0011 14.37 38.2797 14.3244 38.5382 14.2198C38.7967 14.1152 39.0287 13.9542 39.2172 13.7487C39.4057 13.5431 39.546 13.2981 39.6278 13.0315C39.7097 12.7648 39.7311 12.4833 39.6904 12.2074C39.7281 11.9326 39.7046 11.6528 39.6215 11.3881C39.5383 11.1235 39.3977 10.8805 39.2096 10.6765C39.0216 10.4726 38.7907 10.3128 38.5337 10.2086C38.2766 10.1043 37.9996 10.0582 37.7226 10.0736H36.5976V14.3534Z" fill="white"/>
<path d="M41.6805 12.9438C41.6521 12.6479 41.686 12.3493 41.7798 12.0672C41.8737 11.7852 42.0254 11.5258 42.2254 11.3059C42.4253 11.0859 42.669 10.9101 42.9409 10.7898C43.2127 10.6696 43.5067 10.6074 43.804 10.6074C44.1013 10.6074 44.3952 10.6696 44.6671 10.7898C44.939 10.9101 45.1827 11.0859 45.3826 11.3059C45.5825 11.5258 45.7343 11.7852 45.8281 12.0672C45.922 12.3493 45.9558 12.6479 45.9275 12.9438C45.9564 13.24 45.9229 13.539 45.8293 13.8215C45.7357 14.1041 45.5841 14.3639 45.3841 14.5843C45.1841 14.8047 44.9402 14.9808 44.6681 15.1014C44.3959 15.2219 44.1016 15.2842 43.804 15.2842C43.5064 15.2842 43.212 15.2219 42.9399 15.1014C42.6678 14.9808 42.4239 14.8047 42.2239 14.5843C42.0239 14.3639 41.8722 14.1041 41.7786 13.8215C41.6851 13.539 41.6516 13.24 41.6805 12.9438ZM45.0135 12.9438C45.0135 11.9677 44.575 11.3969 43.8055 11.3969C43.033 11.3969 42.5985 11.9677 42.5985 12.9438C42.5985 13.9277 43.033 14.4941 43.8055 14.4941C44.575 14.4941 45.0135 13.9238 45.0135 12.9438H45.0135Z" fill="white"/>
<path d="M51.5732 15.1973H50.6514L49.7207 11.8809H49.6504L48.7236 15.1973H47.8105L46.5693 10.6943H47.4707L48.2773 14.1303H48.3438L49.2695 10.6943H50.1221L51.0479 14.1303H51.1182L51.9209 10.6943H52.8096L51.5732 15.1973Z" fill="white"/>
<path d="M53.8535 10.6939H54.709V11.4092H54.7754C54.888 11.1523 55.0781 10.9369 55.3189 10.7931C55.5598 10.6493 55.8395 10.5842 56.1191 10.607C56.3382 10.5905 56.5582 10.6235 56.7628 10.7036C56.9674 10.7837 57.1514 10.9088 57.3011 11.0697C57.4508 11.2305 57.5623 11.423 57.6275 11.6328C57.6927 11.8426 57.7099 12.0644 57.6777 12.2818V15.1968H56.7891V12.5049C56.7891 11.7813 56.4746 11.4214 55.8174 11.4214C55.6686 11.4145 55.5201 11.4398 55.3821 11.4957C55.244 11.5515 55.1197 11.6365 55.0175 11.7449C54.9154 11.8533 54.8379 11.9825 54.7904 12.1236C54.7429 12.2647 54.7264 12.4145 54.7422 12.5625V15.1968H53.8535L53.8535 10.6939Z" fill="white"/>
<path d="M59.0938 8.93652H59.9824V15.1973H59.0938V8.93652Z" fill="white"/>
<path d="M61.2175 12.9439C61.1893 12.6479 61.2231 12.3494 61.317 12.0673C61.4109 11.7852 61.5626 11.5259 61.7626 11.3059C61.9626 11.0859 62.2063 10.9101 62.4782 10.7898C62.75 10.6696 63.044 10.6074 63.3413 10.6074C63.6386 10.6074 63.9326 10.6696 64.2045 10.7898C64.4764 10.9101 64.7201 11.0859 64.92 11.3059C65.12 11.5259 65.2718 11.7852 65.3656 12.0673C65.4595 12.3494 65.4934 12.6479 65.4651 12.9439C65.4939 13.2401 65.4604 13.5391 65.3668 13.8216C65.2732 14.1042 65.1215 14.364 64.9215 14.5844C64.7215 14.8048 64.4776 14.9809 64.2054 15.1014C63.9333 15.222 63.639 15.2842 63.3413 15.2842C63.0437 15.2842 62.7493 15.222 62.4772 15.1014C62.2051 14.9809 61.9612 14.8048 61.7612 14.5844C61.5611 14.364 61.4095 14.1042 61.3158 13.8216C61.2222 13.5391 61.1887 13.2401 61.2175 12.9439ZM64.5505 12.9439C64.5505 11.9678 64.1121 11.397 63.3425 11.397C62.5701 11.397 62.1355 11.9678 62.1355 12.9439C62.1355 13.9278 62.5701 14.4942 63.3425 14.4942C64.1121 14.4942 64.5505 13.9239 64.5505 12.9439H64.5505Z" fill="white"/>
<path d="M66.4009 13.9238C66.4009 13.1133 67.0044 12.646 68.0757 12.5796L69.2954 12.5093V12.1206C69.2954 11.645 68.981 11.3765 68.3735 11.3765C67.8774 11.3765 67.5337 11.5586 67.4351 11.877H66.5747C66.6655 11.1035 67.3931 10.6074 68.4146 10.6074C69.5435 10.6074 70.1802 11.1694 70.1802 12.1206V15.1973H69.3247V14.5645H69.2544C69.1117 14.7914 68.9113 14.9765 68.6737 15.1007C68.436 15.2249 68.1697 15.2838 67.9019 15.2715C67.7128 15.2911 67.5218 15.2709 67.341 15.2122C67.1602 15.1536 66.9938 15.0576 66.8524 14.9307C66.711 14.8037 66.5977 14.6485 66.52 14.4751C66.4422 14.3017 66.4016 14.1139 66.4009 13.9238ZM69.2954 13.5391V13.1626L68.1958 13.2329C67.5757 13.2744 67.2944 13.4853 67.2944 13.8823C67.2944 14.2876 67.646 14.5234 68.1294 14.5234C68.2711 14.5378 68.4142 14.5235 68.5502 14.4814C68.6862 14.4393 68.8123 14.3703 68.9211 14.2784C69.0299 14.1866 69.1191 14.0738 69.1834 13.9468C69.2477 13.8198 69.2858 13.6811 69.2954 13.5391Z" fill="white"/>
<path d="M71.3481 12.9439C71.3481 11.521 72.0796 10.6196 73.2173 10.6196C73.4987 10.6067 73.778 10.6741 74.0225 10.814C74.267 10.9539 74.4667 11.1605 74.5981 11.4096H74.6646V8.93652H75.5532V15.1973H74.7017V14.4858H74.6314C74.4897 14.7333 74.2831 14.9374 74.0339 15.0758C73.7846 15.2143 73.5022 15.282 73.2173 15.2715C72.0718 15.2715 71.3481 14.3701 71.3481 12.9439ZM72.2661 12.9439C72.2661 13.8989 72.7163 14.4737 73.4693 14.4737C74.2183 14.4737 74.6812 13.8907 74.6812 12.9478C74.6812 12.0093 74.2134 11.418 73.4693 11.418C72.7212 11.418 72.2661 11.9966 72.2661 12.9439H72.2661Z" fill="white"/>
<path d="M79.2298 12.9438C79.2015 12.6479 79.2353 12.3493 79.3292 12.0672C79.423 11.7852 79.5748 11.5258 79.7747 11.3059C79.9746 11.0859 80.2183 10.9101 80.4902 10.7898C80.762 10.6696 81.056 10.6074 81.3533 10.6074C81.6506 10.6074 81.9446 10.6696 82.2164 10.7898C82.4883 10.9101 82.732 11.0859 82.9319 11.3059C83.1319 11.5258 83.2836 11.7852 83.3775 12.0672C83.4713 12.3493 83.5052 12.6479 83.4768 12.9438C83.5057 13.24 83.4722 13.539 83.3786 13.8215C83.2851 14.1041 83.1334 14.3639 82.9334 14.5843C82.7334 14.8047 82.4895 14.9808 82.2174 15.1014C81.9453 15.2219 81.6509 15.2842 81.3533 15.2842C81.0557 15.2842 80.7613 15.2219 80.4892 15.1014C80.2171 14.9808 79.9732 14.8047 79.7732 14.5843C79.5732 14.3639 79.4216 14.1041 79.328 13.8215C79.2344 13.539 79.2009 13.24 79.2298 12.9438ZM82.5628 12.9438C82.5628 11.9677 82.1243 11.3969 81.3548 11.3969C80.5823 11.3969 80.1478 11.9677 80.1478 12.9438C80.1478 13.9277 80.5823 14.4941 81.3548 14.4941C82.1243 14.4941 82.5628 13.9238 82.5628 12.9438Z" fill="white"/>
<path d="M84.6694 10.6939H85.5249V11.4092H85.5913C85.704 11.1523 85.894 10.9369 86.1348 10.7931C86.3757 10.6493 86.6555 10.5842 86.9351 10.607C87.1542 10.5905 87.3742 10.6235 87.5788 10.7036C87.7834 10.7837 87.9673 10.9088 88.117 11.0697C88.2667 11.2305 88.3783 11.423 88.4435 11.6328C88.5087 11.8426 88.5258 12.0644 88.4937 12.2818V15.1968H87.605V12.5049C87.605 11.7813 87.2905 11.4214 86.6333 11.4214C86.4846 11.4145 86.336 11.4398 86.198 11.4957C86.0599 11.5515 85.9356 11.6365 85.8335 11.7449C85.7313 11.8533 85.6539 11.9825 85.6063 12.1236C85.5588 12.2647 85.5423 12.4145 85.5581 12.5625V15.1968H84.6694V10.6939Z" fill="white"/>
<path d="M93.5151 9.57324V10.7148H94.4907V11.4634H93.5151V13.7788C93.5151 14.2505 93.7095 14.457 94.1519 14.457C94.2651 14.4567 94.3783 14.4498 94.4907 14.4365V15.1768C94.3311 15.2053 94.1694 15.2205 94.0073 15.2222C93.019 15.2222 92.6255 14.8745 92.6255 14.0063V11.4633H91.9106V10.7148H92.6255V9.57324H93.5151Z" fill="white"/>
<path d="M95.7046 8.93652H96.5854V11.418H96.6558C96.7739 11.1587 96.9691 10.9421 97.2148 10.7977C97.4605 10.6534 97.7447 10.5883 98.0288 10.6113C98.2467 10.5995 98.4646 10.6359 98.6669 10.7179C98.8692 10.7999 99.0508 10.9256 99.199 11.086C99.3471 11.2463 99.458 11.4373 99.5238 11.6455C99.5896 11.8536 99.6086 12.0737 99.5795 12.29V15.1973H98.69V12.5093C98.69 11.79 98.355 11.4258 97.7271 11.4258C97.5743 11.4132 97.4207 11.4342 97.2769 11.4873C97.1332 11.5404 97.0027 11.6242 96.8947 11.7329C96.7867 11.8417 96.7038 11.9727 96.6517 12.1168C96.5997 12.261 96.5797 12.4147 96.5933 12.5674V15.1973H95.7046L95.7046 8.93652Z" fill="white"/>
<path d="M104.761 13.9815C104.641 14.3931 104.379 14.749 104.022 14.9872C103.666 15.2253 103.237 15.3305 102.81 15.2842C102.514 15.2921 102.219 15.2353 101.946 15.1177C101.674 15.0002 101.43 14.8248 101.232 14.6036C101.034 14.3825 100.887 14.1209 100.8 13.8371C100.713 13.5533 100.69 13.254 100.73 12.96C100.691 12.6652 100.715 12.3652 100.801 12.0805C100.888 11.7959 101.035 11.5331 101.231 11.31C101.428 11.087 101.671 10.9088 101.943 10.7876C102.214 10.6664 102.509 10.605 102.806 10.6075C104.059 10.6075 104.815 11.4635 104.815 12.8775V13.1876H101.635V13.2374C101.621 13.4026 101.642 13.569 101.696 13.7257C101.751 13.8825 101.837 14.0262 101.95 14.1476C102.063 14.2691 102.2 14.3656 102.352 14.431C102.504 14.4964 102.669 14.5292 102.835 14.5274C103.047 14.5529 103.263 14.5146 103.453 14.4174C103.644 14.3202 103.802 14.1685 103.906 13.9815L104.761 13.9815ZM101.635 12.5303H103.91C103.921 12.3792 103.9 12.2274 103.85 12.0847C103.799 11.942 103.718 11.8115 103.614 11.7016C103.51 11.5918 103.383 11.505 103.243 11.4468C103.103 11.3886 102.953 11.3604 102.801 11.3638C102.648 11.3619 102.495 11.3908 102.353 11.4487C102.21 11.5067 102.081 11.5925 101.972 11.7012C101.864 11.8099 101.778 11.9393 101.72 12.0817C101.662 12.2241 101.633 12.3766 101.635 12.5303H101.635Z" fill="white"/>
</svg>
