<svg width="19" height="19" viewBox="0 0 19 19" fill="none" xmlns="http://www.w3.org/2000/svg">
<path d="M15.6785 0.199998H3.10851C2.75293 0.193487 2.3997 0.258721 2.0699 0.391802C1.74011 0.524883 1.44053 0.72308 1.18906 0.97455C0.937588 1.22602 0.739391 1.5256 0.60631 1.8554C0.473229 2.18519 0.407995 2.53842 0.414506 2.894V15.464C0.407995 15.8196 0.473229 16.1728 0.60631 16.5026C0.739391 16.8324 0.937588 17.132 1.18906 17.3834C1.44053 17.6349 1.74011 17.8331 2.0699 17.9662C2.3997 18.0993 2.75293 18.1645 3.10851 18.158H15.6785C16.0341 18.1645 16.3873 18.0993 16.7171 17.9662C17.0469 17.8331 17.3465 17.6349 17.598 17.3834C17.8494 17.132 18.0476 16.8324 18.1807 16.5026C18.3138 16.1728 18.379 15.8196 18.3725 15.464V2.894C18.379 2.53842 18.3138 2.18519 18.1807 1.8554C18.0476 1.5256 17.8494 1.22602 17.598 0.97455C17.3465 0.72308 17.0469 0.524883 16.7171 0.391802C16.3873 0.258721 16.0341 0.193487 15.6785 0.199998ZM5.80151 13.668C5.80913 13.7882 5.79108 13.9086 5.74855 14.0212C5.70601 14.1339 5.63998 14.2362 5.55483 14.3213C5.46969 14.4065 5.36739 14.4725 5.25474 14.515C5.14209 14.5576 5.02168 14.5756 4.90151 14.568C4.78134 14.5756 4.66092 14.5576 4.54827 14.515C4.43562 14.4725 4.33332 14.4065 4.24818 14.3213C4.16303 14.2362 4.097 14.1339 4.05447 14.0212C4.01193 13.9086 3.99388 13.7882 4.00151 13.668V10.077C3.99388 9.95683 4.01193 9.83641 4.05447 9.72376C4.097 9.61111 4.16303 9.50881 4.24818 9.42367C4.33332 9.33852 4.43562 9.27249 4.54827 9.22996C4.66092 9.18743 4.78134 9.16937 4.90151 9.177C5.02168 9.16937 5.14209 9.18743 5.25474 9.22996C5.36739 9.27249 5.46969 9.33852 5.55483 9.42367C5.63998 9.50881 5.70601 9.61111 5.74855 9.72376C5.79108 9.83641 5.80913 9.95683 5.80151 10.077V13.668ZM10.2905 13.668C10.2905 13.7862 10.2672 13.9032 10.222 14.0124C10.1768 14.1216 10.1105 14.2208 10.0269 14.3044C9.94333 14.388 9.84411 14.4543 9.73492 14.4995C9.62573 14.5447 9.5087 14.568 9.39051 14.568C9.27232 14.568 9.15528 14.5447 9.04609 14.4995C8.9369 14.4543 8.83768 14.388 8.75411 14.3044C8.67054 14.2208 8.60424 14.1216 8.55901 14.0124C8.51379 13.9032 8.49051 13.7862 8.49051 13.668V4.689C8.49051 4.4503 8.58533 4.22138 8.75411 4.0526C8.92289 3.88382 9.15181 3.789 9.39051 3.789C9.6292 3.789 9.85812 3.88382 10.0269 4.0526C10.1957 4.22138 10.2905 4.4503 10.2905 4.689V13.668ZM14.7795 13.668C14.7795 13.9067 14.6847 14.1356 14.5159 14.3044C14.3471 14.4732 14.1182 14.568 13.8795 14.568C13.6408 14.568 13.4119 14.4732 13.2431 14.3044C13.0743 14.1356 12.9795 13.9067 12.9795 13.668V8.281C12.9795 8.0423 13.0743 7.81338 13.2431 7.6446C13.4119 7.47582 13.6408 7.381 13.8795 7.381C14.1182 7.381 14.3471 7.47582 14.5159 7.6446C14.6847 7.81338 14.7795 8.0423 14.7795 8.281V13.668Z" fill="#DA2C7C"/>
</svg>
