<svg width="19" height="19" viewBox="0 0 19 19" fill="none" xmlns="http://www.w3.org/2000/svg">
<path opacity="0.4" d="M13.7527 3.75622H11.1107C10.7856 3.75799 10.4642 3.68708 10.1701 3.54866C9.87598 3.41025 9.6165 3.20783 9.41067 2.95622L8.53967 1.75622C8.33742 1.50256 8.07978 1.29858 7.78649 1.15991C7.4932 1.02124 7.17206 0.951564 6.84767 0.95622H4.97867C1.62567 0.95622 0.388672 2.92422 0.388672 6.27022V9.88722C0.388672 10.2872 18.3417 10.2872 18.3437 9.88722V8.83622C18.3597 5.49022 17.1537 3.75622 13.7527 3.75622Z" fill="#7800F0"/>
<path d="M13.7447 3.752C14.9158 3.66139 16.0783 4.01401 17.0017 4.74C17.1096 4.82999 17.2099 4.92865 17.3017 5.035C17.5889 5.37063 17.8111 5.75691 17.9567 6.174C18.2418 7.03258 18.3728 7.9348 18.3437 8.839V13.556C18.3424 13.9533 18.313 14.3499 18.2557 14.743C18.1463 15.437 17.902 16.1029 17.5367 16.703C17.3689 16.9942 17.1649 17.263 16.9297 17.503C16.4026 17.9865 15.7845 18.3602 15.1115 18.6023C14.4385 18.8443 13.724 18.95 13.0097 18.913H5.70967C4.99487 18.9478 4.28026 18.8405 3.60722 18.5973C2.93417 18.3541 2.31606 17.9798 1.78867 17.496C1.55587 17.2556 1.35428 16.9868 1.18867 16.696C0.826887 16.097 0.588863 15.4316 0.488673 14.739C0.423423 14.3467 0.38998 13.9497 0.388673 13.552V8.839C0.388499 8.4438 0.409864 8.04888 0.452673 7.656C0.490456 7.47985 0.517175 7.3015 0.532673 7.122C0.613746 6.6495 0.761557 6.19091 0.971673 5.76C1.59467 4.429 2.87167 3.752 4.96367 3.752H13.7457H13.7447ZM13.9607 11.631H4.85167C4.65515 11.631 4.46667 11.7091 4.32771 11.848C4.18874 11.987 4.11067 12.1755 4.11067 12.372C4.11067 12.5685 4.18874 12.757 4.32771 12.896C4.46667 13.0349 4.65515 13.113 4.85167 13.113H13.9047C14.0027 13.1173 14.1006 13.1021 14.1927 13.0683C14.2848 13.0345 14.3693 12.9827 14.4413 12.916C14.5133 12.8494 14.5713 12.7691 14.6121 12.6798C14.6528 12.5905 14.6755 12.4941 14.6787 12.396C14.6898 12.2219 14.6324 12.0503 14.5187 11.918C14.4543 11.8299 14.3702 11.7581 14.2732 11.7083C14.1761 11.6584 14.0698 11.632 13.9607 11.631Z" fill="#7800F0"/>
</svg>
