<svg width="19" height="19" viewBox="0 0 19 19" fill="none" xmlns="http://www.w3.org/2000/svg">
<path d="M13.8823 0.804989H4.90327C4.31217 0.799244 3.72586 0.911432 3.17863 1.13499C2.63141 1.35855 2.13426 1.68899 1.71627 2.10698C1.29827 2.52497 0.967833 3.02212 0.744275 3.56935C0.520716 4.11657 0.408527 4.70289 0.414272 5.29399V14.273C0.408527 14.8641 0.520716 15.4504 0.744275 15.9976C0.967833 16.5449 1.29827 17.042 1.71627 17.46C2.13426 17.878 2.63141 18.2084 3.17863 18.432C3.72586 18.6555 4.31217 18.7677 4.90327 18.762H13.8823C14.4734 18.7677 15.0597 18.6555 15.6069 18.432C16.1541 18.2084 16.6513 17.878 17.0693 17.46C17.4873 17.042 17.8177 16.5449 18.0413 15.9976C18.2648 15.4504 18.377 14.8641 18.3713 14.273V5.29399C18.377 4.70289 18.2648 4.11657 18.0413 3.56935C17.8177 3.02212 17.4873 2.52497 17.0693 2.10698C16.6513 1.68899 16.1541 1.35855 15.6069 1.13499C15.0597 0.911432 14.4734 0.799244 13.8823 0.804989ZM5.80127 14.722C5.53486 14.722 5.27443 14.643 5.05292 14.495C4.83141 14.347 4.65876 14.1366 4.55681 13.8905C4.45486 13.6443 4.42818 13.3735 4.48015 13.1122C4.53213 12.8509 4.66042 12.6109 4.8488 12.4225C5.03718 12.2341 5.27719 12.1058 5.53849 12.0539C5.79978 12.0019 6.07061 12.0286 6.31675 12.1305C6.56288 12.2325 6.77325 12.4051 6.92126 12.6266C7.06927 12.8481 7.14827 13.1086 7.14827 13.375C7.13965 13.7295 6.99496 14.0671 6.74419 14.3179C6.49343 14.5687 6.1558 14.7134 5.80127 14.722ZM5.80127 7.53899C5.53486 7.53899 5.27443 7.45999 5.05292 7.31198C4.83141 7.16397 4.65876 6.9536 4.55681 6.70746C4.45486 6.46133 4.42818 6.19049 4.48015 5.9292C4.53213 5.66791 4.66042 5.4279 4.8488 5.23952C5.03718 5.05114 5.27719 4.92285 5.53849 4.87087C5.79978 4.8189 6.07061 4.84557 6.31675 4.94752C6.56288 5.04947 6.77325 5.22212 6.92126 5.44364C7.06927 5.66515 7.14827 5.92558 7.14827 6.19199C7.13965 6.54652 6.99496 6.88415 6.74419 7.13491C6.49343 7.38568 6.1558 7.53036 5.80127 7.53899ZM9.39227 11.13C9.12586 11.13 8.86543 11.051 8.64392 10.903C8.42241 10.755 8.24976 10.5446 8.14781 10.2985C8.04586 10.0523 8.01918 9.7815 8.07115 9.5202C8.12313 9.25891 8.25142 9.0189 8.4398 8.83052C8.62818 8.64213 8.86819 8.51385 9.12949 8.46187C9.39078 8.4099 9.66162 8.43657 9.90775 8.53852C10.1539 8.64047 10.3643 8.81312 10.5123 9.03464C10.6603 9.25615 10.7393 9.51658 10.7393 9.78299C10.7307 10.1374 10.5861 10.4748 10.3356 10.7256C10.085 10.9763 9.74763 11.1211 9.39327 11.13H9.39227ZM12.9833 14.721C12.7169 14.721 12.4564 14.642 12.2349 14.494C12.0134 14.346 11.8408 14.1356 11.7388 13.8895C11.6369 13.6433 11.6102 13.3725 11.6622 13.1112C11.7141 12.8499 11.8424 12.6099 12.0308 12.4215C12.2192 12.2331 12.4592 12.1048 12.7205 12.0529C12.9818 12.0009 13.2526 12.0276 13.4987 12.1295C13.7449 12.2315 13.9553 12.4041 14.1033 12.6256C14.2513 12.8471 14.3303 13.1076 14.3303 13.374C14.3219 13.7285 14.1775 14.0663 13.9269 14.3172C13.6763 14.5682 13.3388 14.7131 12.9843 14.722L12.9833 14.721ZM12.9833 7.53799C12.7169 7.53799 12.4564 7.45899 12.2349 7.31098C12.0134 7.16297 11.8408 6.9526 11.7388 6.70646C11.6369 6.46033 11.6102 6.18949 11.6622 5.9282C11.7141 5.66691 11.8424 5.4269 12.0308 5.23852C12.2192 5.05013 12.4592 4.92185 12.7205 4.86987C12.9818 4.8179 13.2526 4.84457 13.4987 4.94652C13.7449 5.04847 13.9553 5.22112 14.1033 5.44264C14.2513 5.66415 14.3303 5.92458 14.3303 6.19099C14.3219 6.54553 14.1775 6.88326 13.9269 7.13421C13.6763 7.38516 13.3388 7.5301 12.9843 7.53899L12.9833 7.53799Z" fill="#121936"/>
</svg>
