<svg width="19" height="17" viewBox="0 0 19 17" fill="none" xmlns="http://www.w3.org/2000/svg">
<path d="M16.3962 6.141L15.1392 2.464C14.9549 1.94264 14.615 1.49043 14.1654 1.16851C13.7158 0.846588 13.1782 0.670484 12.6252 0.664001H6.16023C5.59543 0.671505 5.04761 0.858203 4.59577 1.19717C4.14393 1.53614 3.81144 2.00985 3.64623 2.55L2.38923 6.141C1.82014 6.2986 1.31859 6.63881 0.96175 7.1093C0.604907 7.57979 0.412534 8.1545 0.414226 8.745V12.336C0.408018 12.892 0.579182 13.4355 0.902865 13.8875C1.22655 14.3396 1.6859 14.6767 2.21423 14.85V15.927C2.2066 16.0472 2.22465 16.1676 2.26719 16.2802C2.30972 16.3929 2.37575 16.4952 2.4609 16.5803C2.54604 16.6655 2.64834 16.7315 2.76099 16.774C2.87364 16.8166 2.99406 16.8346 3.11423 16.827C3.2344 16.8346 3.35481 16.8166 3.46746 16.774C3.58011 16.7315 3.68241 16.6655 3.76755 16.5803C3.8527 16.4952 3.91873 16.3929 3.96127 16.2802C4.0038 16.1676 4.02185 16.0472 4.01423 15.927V15.027H14.7802V15.927C14.7802 16.1657 14.875 16.3946 15.0438 16.5634C15.2126 16.7322 15.4415 16.827 15.6802 16.827C15.9189 16.827 16.1478 16.7322 16.3166 16.5634C16.4854 16.3946 16.5802 16.1657 16.5802 15.927V14.85C17.1086 14.6767 17.5679 14.3396 17.8916 13.8875C18.2153 13.4355 18.3864 12.892 18.3802 12.336V8.745C18.3814 8.15332 18.1877 7.57772 17.8291 7.10708C17.4705 6.63644 16.967 6.29694 16.3962 6.141ZM5.35223 3.088C5.40288 2.91149 5.50857 2.75576 5.65391 2.64352C5.79925 2.53128 5.97664 2.46838 6.16023 2.464H12.5352C12.7195 2.4687 12.8973 2.53232 13.0427 2.64553C13.1882 2.75873 13.2935 2.91556 13.3432 3.093L14.4202 6.056H4.36523L5.35223 3.088ZM4.90323 11.438C4.66453 11.438 4.43561 11.3432 4.26683 11.1744C4.09805 11.0056 4.00323 10.7767 4.00323 10.538C4.00323 10.2993 4.09805 10.0704 4.26683 9.90161C4.43561 9.73282 4.66453 9.638 4.90323 9.638C5.14192 9.638 5.37084 9.73282 5.53962 9.90161C5.7084 10.0704 5.80323 10.2993 5.80323 10.538C5.80323 10.7767 5.7084 11.0056 5.53962 11.1744C5.37084 11.3432 5.14192 11.438 4.90323 11.438ZM10.2902 11.438H8.49023C8.25153 11.438 8.02261 11.3432 7.85383 11.1744C7.68505 11.0056 7.59023 10.7767 7.59023 10.538C7.59023 10.2993 7.68505 10.0704 7.85383 9.90161C8.02261 9.73282 8.25153 9.638 8.49023 9.638H10.2902C10.5289 9.638 10.7578 9.73282 10.9266 9.90161C11.0954 10.0704 11.1902 10.2993 11.1902 10.538C11.1902 10.7767 11.0954 11.0056 10.9266 11.1744C10.7578 11.3432 10.5289 11.438 10.2902 11.438ZM13.8812 11.438C13.7032 11.438 13.5292 11.3852 13.3812 11.2863C13.2332 11.1874 13.1179 11.0469 13.0497 10.8824C12.9816 10.718 12.9638 10.537 12.9985 10.3624C13.0332 10.1878 13.119 10.0275 13.2448 9.90161C13.3707 9.77574 13.5311 9.69002 13.7056 9.65529C13.8802 9.62057 14.0612 9.63839 14.2256 9.70651C14.3901 9.77463 14.5307 9.88998 14.6295 10.038C14.7284 10.186 14.7812 10.36 14.7812 10.538C14.7888 10.6581 14.7708 10.7784 14.7283 10.891C14.6859 11.0036 14.6199 11.1058 14.5349 11.1909C14.4499 11.2761 14.3477 11.3421 14.2351 11.3847C14.1226 11.4273 14.0023 11.4455 13.8822 11.438H13.8812Z" fill="#0496FF"/>
</svg>
