<svg width="19" height="15" viewBox="0 0 19 15" fill="none" xmlns="http://www.w3.org/2000/svg">
<path d="M15.6785 0.893006H3.10851C2.75293 0.886495 2.3997 0.951729 2.0699 1.08481C1.74011 1.21789 1.44053 1.41609 1.18906 1.66756C0.937588 1.91903 0.739391 2.21861 0.60631 2.5484C0.473229 2.8782 0.407995 3.23143 0.414506 3.58701V11.668C0.407995 12.0236 0.473229 12.3768 0.60631 12.7066C0.739391 13.0364 0.937588 13.336 1.18906 13.5875C1.44053 13.8389 1.74011 14.0371 2.0699 14.1702C2.3997 14.3033 2.75293 14.3685 3.10851 14.362H15.6785C16.0341 14.3685 16.3873 14.3033 16.7171 14.1702C17.0469 14.0371 17.3465 13.8389 17.598 13.5875C17.8494 13.336 18.0476 13.0364 18.1807 12.7066C18.3138 12.3768 18.379 12.0236 18.3725 11.668V3.58701C18.3709 2.873 18.0866 2.18869 17.5817 1.68381C17.0768 1.17893 16.3925 0.894591 15.6785 0.893006ZM10.2915 11.667C9.93342 11.6739 9.57756 11.6093 9.24473 11.4771C8.91189 11.3448 8.60878 11.1475 8.3531 10.8967C8.09742 10.6459 7.89432 10.3467 7.75567 10.0164C7.61702 9.68621 7.5456 9.33165 7.5456 8.97351C7.5456 8.61536 7.61702 8.2608 7.75567 7.93058C7.89432 7.60036 8.09742 7.3011 8.3531 7.0503C8.60878 6.7995 8.91189 6.6022 9.24473 6.46994C9.57756 6.33768 9.93342 6.27311 10.2915 6.28001C10.5343 6.26558 10.7777 6.29609 11.0095 6.37001C10.4344 6.51553 9.92585 6.85204 9.56703 7.3244C9.20822 7.79677 9.02046 8.37698 9.03451 8.97001C9.03764 9.55883 9.23192 10.1307 9.5881 10.5996C9.94428 11.0685 10.4431 11.409 11.0095 11.57C10.7771 11.6412 10.5345 11.674 10.2915 11.667ZM12.9855 11.667C12.4527 11.667 11.9318 11.509 11.4888 11.213C11.0458 10.917 10.7005 10.4962 10.4966 10.004C10.2927 9.51169 10.2393 8.97002 10.3433 8.44743C10.4472 7.92485 10.7038 7.44482 11.0806 7.06806C11.4573 6.6913 11.9373 6.43472 12.4599 6.33077C12.9825 6.22682 13.5242 6.28017 14.0165 6.48407C14.5087 6.68798 14.9295 7.03327 15.2255 7.4763C15.5215 7.91933 15.6795 8.44018 15.6795 8.97301C15.6779 9.68719 15.3934 10.3716 14.8883 10.8766C14.3833 11.3815 13.6987 11.6657 12.9845 11.667H12.9855Z" fill="#177937"/>
</svg>
