<svg width="18" height="20" viewBox="0 0 18 20" fill="none" xmlns="http://www.w3.org/2000/svg">
<path d="M14.3441 19.09H3.16914C2.42653 19.09 1.71434 18.795 1.18924 18.2699C0.66414 17.7448 0.369141 17.0326 0.369141 16.29V8.143C0.369894 7.74529 0.455364 7.3523 0.61986 6.9902C0.784356 6.6281 1.0241 6.3052 1.32314 6.043L6.91314 1.149C7.42375 0.705094 8.07755 0.460629 8.75414 0.460629C9.43073 0.460629 10.0845 0.705094 10.5951 1.149L16.1851 6.04C16.4842 6.3022 16.7239 6.6251 16.8884 6.9872C17.0529 7.3493 17.1384 7.74229 17.1391 8.14V16.292C17.1386 17.0334 16.8441 17.7443 16.3201 18.2688C15.7961 18.7934 15.0855 19.0887 14.3441 19.09Z" fill="#FD8B34"/>
<path d="M12.4803 19.09H5.02734V12.573C5.02734 11.8304 5.32234 11.1182 5.84744 10.5931C6.37255 10.068 7.08474 9.773 7.82734 9.773H9.69034C10.058 9.773 10.4221 9.84542 10.7619 9.98614C11.1016 10.1268 11.4102 10.3331 11.6702 10.5931C11.9302 10.8531 12.1365 11.1618 12.2772 11.5015C12.4179 11.8412 12.4903 12.2053 12.4903 12.573L12.4803 19.09Z" fill="#FFBC89"/>
</svg>
