<svg width="38" height="38" viewBox="0 0 38 38" fill="none" xmlns="http://www.w3.org/2000/svg">
<path d="M19 38C29.4934 38 38 29.4934 38 19C38 8.50659 29.4934 0 19 0C8.50659 0 0 8.50659 0 19C0 29.4934 8.50659 38 19 38Z" fill="#DA2C7C"/>
<path d="M17.4946 23.5181C17.6943 23.5181 17.8858 23.4388 18.0271 23.2976C18.1683 23.1564 18.2476 22.9649 18.2476 22.7651V18.2481C18.2476 18.0484 18.1683 17.8569 18.0271 17.7157C17.8858 17.5745 17.6943 17.4951 17.4946 17.4951C17.2949 17.4951 17.1034 17.5745 16.9622 17.7157C16.8209 17.8569 16.7416 18.0484 16.7416 18.2481V22.7651C16.7416 22.9649 16.8209 23.1564 16.9622 23.2976C17.1034 23.4388 17.2949 23.5181 17.4946 23.5181ZM25.0246 14.4841H22.0106V13.7311C22.0106 13.1323 21.7727 12.558 21.3493 12.1345C20.9258 11.711 20.3515 11.4731 19.7526 11.4731H18.2466C17.6478 11.4731 17.0734 11.711 16.65 12.1345C16.2265 12.558 15.9886 13.1323 15.9886 13.7311V14.4841H12.9776C12.7779 14.4841 12.5864 14.5635 12.4452 14.7047C12.3039 14.8459 12.2246 15.0374 12.2246 15.2371C12.2246 15.4369 12.3039 15.6284 12.4452 15.7696C12.5864 15.9108 12.7779 15.9901 12.9776 15.9901H13.7306V24.2731C13.7306 24.872 13.9685 25.4463 14.392 25.8698C14.8154 26.2932 15.3898 26.5311 15.9886 26.5311H22.0106C22.3072 26.5313 22.6009 26.473 22.875 26.3596C23.1491 26.2461 23.3981 26.0798 23.6079 25.8701C23.8177 25.6605 23.9841 25.4115 24.0976 25.1375C24.2112 24.8635 24.2696 24.5698 24.2696 24.2731V15.9901H25.0246C25.2243 15.9901 25.4158 15.9108 25.5571 15.7696C25.6983 15.6284 25.7776 15.4369 25.7776 15.2371C25.7776 15.0374 25.6983 14.8459 25.5571 14.7047C25.4158 14.5635 25.2243 14.4841 25.0246 14.4841ZM17.4946 13.7311C17.4946 13.5314 17.5739 13.3399 17.7152 13.1987C17.8564 13.0575 18.0479 12.9781 18.2476 12.9781H19.7536C19.9533 12.9781 20.1448 13.0575 20.2861 13.1987C20.4273 13.3399 20.5066 13.5314 20.5066 13.7311V14.4841H17.4946V13.7311ZM22.7636 24.2731C22.7636 24.4729 22.6843 24.6644 22.5431 24.8056C22.4018 24.9468 22.2103 25.0261 22.0106 25.0261H15.9886C15.7889 25.0261 15.5974 24.9468 15.4562 24.8056C15.3149 24.6644 15.2356 24.4729 15.2356 24.2731V15.9901H22.7636V24.2731ZM20.5056 23.5201C20.7053 23.5201 20.8968 23.4408 21.0381 23.2996C21.1793 23.1584 21.2586 22.9669 21.2586 22.7671V18.2481C21.2586 18.0484 21.1793 17.8569 21.0381 17.7157C20.8968 17.5745 20.7053 17.4951 20.5056 17.4951C20.3059 17.4951 20.1144 17.5745 19.9732 17.7157C19.8319 17.8569 19.7526 18.0484 19.7526 18.2481V22.7651C19.7526 22.864 19.7721 22.9619 19.8099 23.0533C19.8478 23.1447 19.9032 23.2277 19.9732 23.2976C20.0431 23.3675 20.1261 23.423 20.2174 23.4608C20.3088 23.4987 20.4067 23.5181 20.5056 23.5181V23.5201Z" fill="white"/>
</svg>
