<svg width="108" height="106" viewBox="0 0 108 106" fill="none" xmlns="http://www.w3.org/2000/svg">
<rect x="4.49951" y="3" width="102" height="102" rx="51" stroke="#2563EB" stroke-width="2" stroke-dasharray="8 4"/>
<circle cx="50.8335" cy="50" r="50" fill="#2563EB"/>
<g clip-path="url(#clip0_3649_40916)">
<path d="M73.8335 44.068C73.8335 43.4114 73.7042 42.7612 73.4529 42.1546C73.2016 41.548 72.8333 40.9968 72.369 40.5325C71.9047 40.0682 71.3535 39.6999 70.7469 39.4486C70.1403 39.1973 69.4901 39.068 68.8335 39.068H56.2115C56.1325 39.0678 56.0548 39.049 55.9845 39.013C55.9142 38.977 55.8535 38.9248 55.8073 38.8608C55.761 38.7968 55.7306 38.7228 55.7185 38.6448C55.7063 38.5668 55.7129 38.487 55.7375 38.412C56.8416 35.6137 57.2 32.5765 56.7775 29.598C55.6015 25.408 53.1095 24.198 51.1595 24.468C50.2018 24.631 49.3361 25.1369 48.724 25.8914C48.112 26.6458 47.7954 27.5973 47.8335 28.568C47.8335 34.06 43.5755 40.06 39.7655 42.69C39.6321 42.7821 39.5231 42.9052 39.4478 43.0487C39.3726 43.1922 39.3333 43.3519 39.3335 43.514V63.746C39.3334 63.9783 39.4143 64.2033 39.5621 64.3825C39.7099 64.5617 39.9154 64.6839 40.1435 64.728C40.8575 64.866 41.5055 64.998 42.1175 65.128C44.8087 65.7692 47.567 66.0854 50.3335 66.07H63.3335C67.2475 66.07 67.8335 63.87 67.8335 62.57C67.8339 61.8805 67.6751 61.2001 67.3695 60.582C68.4258 60.0468 69.2284 59.1165 69.6028 57.9931C69.9773 56.8697 69.8935 55.6439 69.3695 54.582C70.1106 54.2055 70.7331 53.6312 71.168 52.9227C71.6029 52.2143 71.8332 51.3993 71.8335 50.568C71.8348 49.8188 71.647 49.0813 71.2875 48.424C72.06 47.9889 72.7028 47.3561 73.1502 46.5907C73.5976 45.8253 73.8334 44.9546 73.8335 44.068Z" fill="white"/>
<path d="M36.3335 43.568C36.3335 43.0376 36.1228 42.5289 35.7477 42.1538C35.3726 41.7787 34.8639 41.568 34.3335 41.568H27.8335C27.3031 41.568 26.7944 41.7787 26.4193 42.1538C26.0442 42.5289 25.8335 43.0376 25.8335 43.568V65.568C25.8335 66.0984 26.0442 66.6071 26.4193 66.9822C26.7944 67.3573 27.3031 67.568 27.8335 67.568H34.3335C34.8639 67.568 35.3726 67.3573 35.7477 66.9822C36.1228 66.6071 36.3335 66.0984 36.3335 65.568V43.568ZM33.3335 62.068C33.3335 62.3647 33.2455 62.6547 33.0807 62.9013C32.9159 63.148 32.6816 63.3403 32.4075 63.4538C32.1334 63.5673 31.8318 63.597 31.5409 63.5392C31.2499 63.4813 30.9826 63.3384 30.7728 63.1287C30.5631 62.9189 30.4202 62.6516 30.3623 62.3606C30.3044 62.0697 30.3341 61.7681 30.4477 61.494C30.5612 61.2199 30.7535 60.9856 31.0001 60.8208C31.2468 60.656 31.5368 60.568 31.8335 60.568C32.2313 60.568 32.6129 60.726 32.8942 61.0073C33.1755 61.2886 33.3335 61.6702 33.3335 62.068Z" fill="white"/>
</g>
<defs>
<clipPath id="clip0_3649_40916">
<rect width="48" height="48" fill="white" transform="translate(25.8335 22)"/>
</clipPath>
</defs>
</svg>
