<svg width="110" height="110" viewBox="0 0 110 110" fill="none" xmlns="http://www.w3.org/2000/svg">
<path d="M55 87C72.6731 87 87 72.6731 87 55C87 37.3269 72.6731 23 55 23C37.3269 23 23 37.3269 23 55C23 72.6731 37.3269 87 55 87Z" fill="#700BE9"/>
<g opacity="0.2">
<path d="M55 109.5C85.0995 109.5 109.5 85.0995 109.5 55C109.5 24.9005 85.0995 0.5 55 0.5C24.9005 0.5 0.5 24.9005 0.5 55C0.5 85.0995 24.9005 109.5 55 109.5Z" stroke="#700BE9"/>
</g>
<path d="M48 54.4841H59.9L56.371 50.9511L57.271 50.0601L62.327 55.1161L57.271 60.1721L56.38 59.2811L59.9 55.7481H48V54.4841Z" fill="white"/>
</svg>
