<svg width="99" height="99" viewBox="0 0 99 99" fill="none" xmlns="http://www.w3.org/2000/svg">
<path d="M49.5 99C76.8381 99 99 76.8381 99 49.5C99 22.1619 76.8381 0 49.5 0C22.1619 0 0 22.1619 0 49.5C0 76.8381 22.1619 99 49.5 99Z" fill="#F5F0FF"/>
<path d="M56.2645 39.489L55.5645 38.394C55.2114 37.8425 54.7253 37.3887 54.1509 37.0742C53.5765 36.7596 52.9323 36.5945 52.2775 36.594H47.6775C47.0227 36.5945 46.3785 36.7596 45.8041 37.0742C45.2297 37.3887 44.7436 37.8425 44.3905 38.394L43.6905 39.489C43.2295 40.2069 42.5955 40.7974 41.8468 41.2065C41.0981 41.6155 40.2587 41.8299 39.4055 41.83C38.0548 41.83 36.7593 42.3666 35.8042 43.3217C34.8491 44.2768 34.3125 45.5722 34.3125 46.923V57.411C34.3125 58.7617 34.8491 60.0572 35.8042 61.0123C36.7593 61.9674 38.0548 62.504 39.4055 62.504H60.5505C61.2193 62.504 61.8816 62.3723 62.4995 62.1163C63.1174 61.8604 63.6789 61.4852 64.1518 61.0123C64.6247 60.5394 64.9999 59.9779 65.2558 59.36C65.5118 58.7421 65.6435 58.0798 65.6435 57.411V46.923C65.6435 46.2542 65.5118 45.5919 65.2558 44.974C64.9999 44.3561 64.6247 43.7946 64.1518 43.3217C63.6789 42.8488 63.1174 42.4736 62.4995 42.2177C61.8816 41.9617 61.2193 41.83 60.5505 41.83C59.6972 41.8301 58.8575 41.6158 58.1086 41.2067C57.3597 40.7977 56.7256 40.207 56.2645 39.489Z" stroke="#700BE9" stroke-width="1.5" stroke-miterlimit="10" stroke-linecap="round" stroke-linejoin="round"/>
<path d="M49.9726 58.213C53.4923 58.213 56.3456 55.3598 56.3456 51.84C56.3456 48.3203 53.4923 45.467 49.9726 45.467C46.4529 45.467 43.5996 48.3203 43.5996 51.84C43.5996 55.3598 46.4529 58.213 49.9726 58.213Z" stroke="#700BE9" stroke-width="1.5" stroke-miterlimit="10" stroke-linecap="round" stroke-linejoin="round"/>
<path d="M48.3281 40.001H51.4911" stroke="#700BE9" stroke-width="1.5" stroke-miterlimit="10" stroke-linecap="round" stroke-linejoin="round"/>
</svg>
