<svg width="31" height="31" viewBox="0 0 31 31" fill="none" xmlns="http://www.w3.org/2000/svg">
<path d="M29.0625 13.5625H27.7547L24.3907 5.99414C24.2385 5.65172 23.9902 5.3608 23.676 5.15661C23.3617 4.95243 22.9951 4.84375 22.6203 4.84375H8.37969C8.00495 4.84375 7.63826 4.95243 7.32403 5.15661C7.0098 5.3608 6.76153 5.65172 6.6093 5.99414L3.24531 13.5625H1.9375C1.68057 13.5625 1.43417 13.6646 1.25249 13.8462C1.07081 14.0279 0.96875 14.2743 0.96875 14.5312C0.96875 14.7882 1.07081 15.0346 1.25249 15.2163C1.43417 15.3979 1.68057 15.5 1.9375 15.5H2.90625V25.1875C2.90625 25.7014 3.11038 26.1942 3.47373 26.5575C3.83708 26.9209 4.32989 27.125 4.84375 27.125H7.75C8.26386 27.125 8.75667 26.9209 9.12002 26.5575C9.48337 26.1942 9.6875 25.7014 9.6875 25.1875V23.25H21.3125V25.1875C21.3125 25.7014 21.5166 26.1942 21.88 26.5575C22.2433 26.9209 22.7361 27.125 23.25 27.125H26.1562C26.6701 27.125 27.1629 26.9209 27.5263 26.5575C27.8896 26.1942 28.0938 25.7014 28.0938 25.1875V15.5H29.0625C29.3194 15.5 29.5658 15.3979 29.7475 15.2163C29.9292 15.0346 30.0312 14.7882 30.0312 14.5312C30.0312 14.2743 29.9292 14.0279 29.7475 13.8462C29.5658 13.6646 29.3194 13.5625 29.0625 13.5625ZM8.37969 6.78125H22.6203L25.6343 13.5625H5.36566L8.37969 6.78125ZM7.75 25.1875H4.84375V23.25H7.75V25.1875ZM23.25 25.1875V23.25H26.1562V25.1875H23.25ZM26.1562 21.3125H4.84375V15.5H26.1562V21.3125ZM6.78125 18.4062C6.78125 18.1493 6.88331 17.9029 7.06499 17.7212C7.24667 17.5396 7.49307 17.4375 7.75 17.4375H9.6875C9.94443 17.4375 10.1908 17.5396 10.3725 17.7212C10.5542 17.9029 10.6562 18.1493 10.6562 18.4062C10.6562 18.6632 10.5542 18.9096 10.3725 19.0913C10.1908 19.2729 9.94443 19.375 9.6875 19.375H7.75C7.49307 19.375 7.24667 19.2729 7.06499 19.0913C6.88331 18.9096 6.78125 18.6632 6.78125 18.4062ZM20.3438 18.4062C20.3438 18.1493 20.4458 17.9029 20.6275 17.7212C20.8092 17.5396 21.0556 17.4375 21.3125 17.4375H23.25C23.5069 17.4375 23.7533 17.5396 23.935 17.7212C24.1167 17.9029 24.2188 18.1493 24.2188 18.4062C24.2188 18.6632 24.1167 18.9096 23.935 19.0913C23.7533 19.2729 23.5069 19.375 23.25 19.375H21.3125C21.0556 19.375 20.8092 19.2729 20.6275 19.0913C20.4458 18.9096 20.3438 18.6632 20.3438 18.4062Z" fill="#700BE9"/>
</svg>
