<svg width="18" height="17" viewBox="0 0 18 17" fill="none" xmlns="http://www.w3.org/2000/svg">
<path d="M13.3585 5.92101L12.6395 5.18101C12.6249 5.16543 12.6072 5.15304 12.5876 5.1446C12.568 5.13617 12.5468 5.13189 12.5255 5.13201C12.504 5.13144 12.4828 5.13553 12.4631 5.14399C12.4434 5.15245 12.4258 5.16508 12.4115 5.18101L7.42547 10.203L5.61047 8.38901C5.59571 8.37349 5.57795 8.36113 5.55826 8.35268C5.53858 8.34424 5.51738 8.33988 5.49597 8.33988C5.47455 8.33988 5.45335 8.34424 5.43367 8.35268C5.41399 8.36113 5.39622 8.37349 5.38147 8.38901L4.65447 9.11601C4.63895 9.13119 4.62663 9.14931 4.61822 9.16932C4.6098 9.18932 4.60547 9.21081 4.60547 9.23251C4.60547 9.25421 4.6098 9.2757 4.61822 9.2957C4.62663 9.31571 4.63895 9.33383 4.65447 9.34901L6.94247 11.637C7.06648 11.7725 7.23735 11.8558 7.42047 11.87C7.60021 11.8538 7.76829 11.774 7.89447 11.645L13.3585 6.15301C13.3868 6.12101 13.4024 6.07975 13.4024 6.03701C13.4024 5.99427 13.3868 5.95301 13.3585 5.92101Z" fill="#00BF3D"/>
<path d="M9.00196 1.144C10.7031 1.14407 12.3516 1.73396 13.6665 2.81317C14.9815 3.89239 15.8815 5.39415 16.2134 7.06259C16.5453 8.73103 16.2883 10.4629 15.4864 11.9632C14.6845 13.4634 13.3873 14.6392 11.8156 15.2902C10.244 15.9413 8.49529 16.0272 6.8674 15.5334C5.23952 15.0397 3.83319 13.9968 2.88804 12.5824C1.94289 11.168 1.51739 9.46962 1.68404 7.77668C1.85068 6.08374 2.59916 4.50096 3.80196 3.298C4.48327 2.61302 5.29366 2.06996 6.18624 1.70023C7.07881 1.3305 8.03584 1.14144 9.00196 1.144ZM9.00196 0C7.32082 0 5.67743 0.498516 4.27961 1.43251C2.88179 2.3665 1.79233 3.69402 1.14898 5.24719C0.505636 6.80036 0.337308 8.50943 0.665282 10.1583C0.993256 11.8071 1.8028 13.3217 2.99155 14.5104C4.1803 15.6992 5.69485 16.5087 7.34369 16.8367C8.99253 17.1646 10.7016 16.9963 12.2548 16.353C13.8079 15.7096 15.1355 14.6202 16.0694 13.2223C17.0034 11.8245 17.502 10.1811 17.502 8.5C17.502 6.24566 16.6064 4.08365 15.0124 2.48959C13.4183 0.895533 11.2563 0 9.00196 0Z" fill="#00BF3D"/>
</svg>
