<svg width="26" height="26" viewBox="0 0 26 26" fill="none" xmlns="http://www.w3.org/2000/svg">
<rect x="26" width="26" height="26" rx="5" transform="rotate(90 26 0)" fill="#F5F0FF"/>
<path fill-rule="evenodd" clip-rule="evenodd" d="M16.3763 11.9377C16.5638 12.1252 16.6691 12.3795 16.6691 12.6447C16.6691 12.9099 16.5638 13.1642 16.3763 13.3517L10.7193 19.0087C10.627 19.1042 10.5167 19.1804 10.3947 19.2328C10.2727 19.2852 10.1415 19.3128 10.0087 19.314C9.87591 19.3151 9.74423 19.2898 9.62133 19.2395C9.49844 19.1893 9.38679 19.115 9.29289 19.0211C9.199 18.9272 9.12475 18.8156 9.07447 18.6927C9.02419 18.5698 8.99888 18.4381 9.00004 18.3053C9.00119 18.1725 9.02878 18.0413 9.08119 17.9193C9.1336 17.7973 9.20978 17.687 9.30529 17.5947L14.2553 12.6447L9.30529 7.69471C9.12313 7.50611 9.02234 7.25351 9.02461 6.99131C9.02689 6.72911 9.13206 6.4783 9.31747 6.29289C9.50288 6.10748 9.75369 6.00232 10.0159 6.00004C10.2781 5.99776 10.5307 6.09855 10.7193 6.28071L16.3763 11.9377Z" fill="black"/>
</svg>
