<svg width="69" height="68" viewBox="0 0 69 68" fill="none" xmlns="http://www.w3.org/2000/svg">
<path d="M34.5 41.7917C33.3383 41.7917 32.375 40.8283 32.375 39.6667V25.5C32.375 24.3383 33.3383 23.375 34.5 23.375C35.6617 23.375 36.625 24.3383 36.625 25.5V39.6667C36.625 40.8283 35.6617 41.7917 34.5 41.7917Z" fill="#E65977"/>
<path d="M34.4993 50.9999C34.3293 50.9999 34.131 50.9716 33.9327 50.9433C33.7627 50.9149 33.5927 50.8583 33.4227 50.7733C33.2527 50.7166 33.0827 50.6316 32.9127 50.5183C32.771 50.4049 32.6293 50.2916 32.4877 50.1783C31.9777 49.6399 31.666 48.9033 31.666 48.1666C31.666 47.4299 31.9777 46.6933 32.4877 46.1549C32.6293 46.0416 32.771 45.9283 32.9127 45.8149C33.0827 45.7016 33.2527 45.6166 33.4227 45.5599C33.5927 45.4749 33.7627 45.4183 33.9327 45.3899C34.301 45.3049 34.6977 45.3049 35.0377 45.3899C35.236 45.4183 35.406 45.4749 35.576 45.5599C35.746 45.6166 35.916 45.7016 36.086 45.8149C36.2277 45.9283 36.3693 46.0416 36.511 46.1549C37.021 46.6933 37.3327 47.4299 37.3327 48.1666C37.3327 48.9033 37.021 49.6399 36.511 50.1783C36.3693 50.2916 36.2277 50.4049 36.086 50.5183C35.916 50.6316 35.746 50.7166 35.576 50.7733C35.406 50.8583 35.236 50.9149 35.0377 50.9433C34.8677 50.9716 34.6693 50.9999 34.4993 50.9999Z" fill="#E65977"/>
<path d="M51.6697 62.7867H17.3297C11.8047 62.7867 7.58302 60.775 5.42969 57.1484C3.30469 53.5217 3.58802 48.8467 6.27969 44.0017L23.4497 13.1184C26.283 8.01838 30.193 5.21338 34.4997 5.21338C38.8064 5.21338 42.7164 8.01838 45.5497 13.1184L62.7197 44.03C65.4113 48.875 65.723 53.5217 63.5697 57.1767C61.4164 60.775 57.1947 62.7867 51.6697 62.7867ZM34.4997 9.46338C31.8364 9.46338 29.2297 11.5034 27.1614 15.1867L10.0197 46.0984C8.09302 49.555 7.78135 52.7284 9.11302 55.0234C10.4447 57.3184 13.3914 58.565 17.358 58.565H51.698C55.6647 58.565 58.583 57.3184 59.943 55.0234C61.303 52.7284 60.963 49.5834 59.0364 46.0984L41.838 15.1867C39.7697 11.5034 37.163 9.46338 34.4997 9.46338Z" fill="#E65977"/>
</svg>
