<svg width="17" height="14" viewBox="0 0 17 14" fill="none" xmlns="http://www.w3.org/2000/svg">
<path d="M13.866 0.875H2.859C2.23335 0.875 1.63333 1.12354 1.19094 1.56594C0.748537 2.00833 0.5 2.60835 0.5 3.234V11.097C0.500265 11.7225 0.748919 12.3222 1.19129 12.7644C1.63366 13.2066 2.23353 13.455 2.859 13.455H13.866C14.1758 13.455 14.4825 13.394 14.7688 13.2754C15.055 13.1569 15.315 12.9831 15.5341 12.7641C15.7531 12.545 15.9269 12.285 16.0454 11.9988C16.164 11.7125 16.225 11.4058 16.225 11.096V3.234C16.225 2.92421 16.164 2.61746 16.0454 2.33125C15.9269 2.04504 15.7531 1.78499 15.5341 1.56594C15.315 1.34688 15.055 1.17312 14.7688 1.05457C14.4825 0.936017 14.1758 0.875 13.866 0.875ZM13.544 2.448L8.921 7.075C8.84793 7.14865 8.76101 7.20711 8.66524 7.247C8.56947 7.2869 8.46675 7.30744 8.363 7.30744C8.25925 7.30744 8.15653 7.2869 8.06076 7.247C7.96499 7.20711 7.87807 7.14865 7.805 7.075L3.181 2.448H13.544ZM14.653 11.097C14.653 11.3055 14.5702 11.5054 14.4228 11.6528C14.2754 11.8002 14.0755 11.883 13.867 11.883H2.859C2.65054 11.883 2.45062 11.8002 2.30321 11.6528C2.15581 11.5054 2.073 11.3055 2.073 11.097V3.556L6.7 8.175C7.14231 8.61675 7.74188 8.86487 8.367 8.86487C8.99212 8.86487 9.59169 8.61675 10.034 8.175L14.657 3.552L14.653 11.097Z" fill="#979DAC"/>
</svg>
