<svg width="20" height="20" viewBox="0 0 20 20" fill="none" xmlns="http://www.w3.org/2000/svg">
<path d="M8.94102 4.22734C9.29232 4.18659 9.64569 4.16628 9.99935 4.16651C13.886 4.16651 16.9993 6.58567 18.3327 9.99984C18.0099 10.8303 17.5738 11.6122 17.0368 12.3232M5.43268 5.43234C3.73268 6.46984 2.41602 8.07734 1.66602 9.99984C2.99935 13.414 6.11268 15.8332 9.99935 15.8332C11.6095 15.8417 13.1903 15.4032 14.566 14.5665M8.23268 8.23317C8.00052 8.46534 7.81635 8.74096 7.6907 9.0443C7.56506 9.34764 7.50039 9.67276 7.50039 10.0011C7.50039 10.3294 7.56506 10.6545 7.6907 10.9579C7.81635 11.2612 8.00052 11.5368 8.23268 11.769C8.46485 12.0012 8.74047 12.1853 9.04381 12.311C9.34715 12.4366 9.67227 12.5013 10.0006 12.5013C10.3289 12.5013 10.654 12.4366 10.9574 12.311C11.2607 12.1853 11.5363 12.0012 11.7685 11.769" stroke="#979DAC" stroke-width="1.5" stroke-linecap="round" stroke-linejoin="round"/>
<path d="M3.33203 3.33325L16.6654 16.6666" stroke="#979DAC" stroke-width="1.5" stroke-linecap="round"/>
</svg>
