<svg width="21" height="16" viewBox="0 0 21 16" fill="none" xmlns="http://www.w3.org/2000/svg">
<path d="M19.9747 7.73491C18.0037 3.14991 14.2857 0.305908 10.2777 0.305908C6.26975 0.305908 2.55575 3.14991 0.577746 7.73491C0.523892 7.85823 0.496094 7.99134 0.496094 8.12591C0.496094 8.26047 0.523892 8.39359 0.577746 8.51691C2.55175 13.1009 6.26675 15.9459 10.2777 15.9459C14.2887 15.9459 17.9997 13.1019 19.9777 8.51691C20.0311 8.39338 20.0584 8.26016 20.0579 8.1256C20.0574 7.99103 20.0291 7.85802 19.9747 7.73491ZM10.2747 13.9909C7.17475 13.9909 4.24375 11.7529 2.55275 8.12591C4.24375 4.49991 7.17575 2.26091 10.2747 2.26091C13.3737 2.26091 16.3087 4.49891 18.0037 8.12591C16.3087 11.7519 13.3767 13.9899 10.2777 13.9899L10.2747 13.9909ZM10.2747 4.21691C9.50142 4.21691 8.74546 4.44623 8.10247 4.87586C7.45947 5.3055 6.95832 5.91616 6.66238 6.63062C6.36644 7.34508 6.28901 8.13125 6.43988 8.88971C6.59074 9.64818 6.96313 10.3449 7.50996 10.8917C8.05678 11.4385 8.75348 11.8109 9.51194 11.9618C10.2704 12.1126 11.0566 12.0352 11.771 11.7393C12.4855 11.4433 13.0962 10.9422 13.5258 10.2992C13.9554 9.65619 14.1847 8.90023 14.1847 8.12691C14.185 7.09026 13.7736 6.09593 13.0409 5.36253C12.3083 4.62914 11.3144 4.2167 10.2777 4.21591L10.2747 4.21691ZM10.2747 10.0819C9.88808 10.0819 9.5101 9.96725 9.18861 9.75243C8.86711 9.53761 8.61653 9.23228 8.46856 8.87505C8.32059 8.51783 8.28188 8.12474 8.35731 7.74551C8.43275 7.36627 8.61894 7.01793 8.89235 6.74451C9.16576 6.4711 9.51411 6.28491 9.89334 6.20947C10.2726 6.13404 10.6657 6.17275 11.0229 6.32072C11.3801 6.46869 11.6855 6.71927 11.9003 7.04077C12.1151 7.36227 12.2297 7.74025 12.2297 8.12691C12.2292 8.64454 12.0234 9.14083 11.6575 9.50695C11.2916 9.87307 10.7954 10.0791 10.2777 10.0799L10.2747 10.0819Z" fill="#979DAC"/>
</svg>
