<svg width="16" height="17" viewBox="0 0 16 17" fill="none" xmlns="http://www.w3.org/2000/svg">
<path d="M7.1355 3C7.00289 3 6.87571 3.05268 6.78194 3.14645C6.68818 3.24021 6.6355 3.36739 6.6355 3.5C6.6355 3.63261 6.68818 3.75979 6.78194 3.85355C6.87571 3.94732 7.00289 4 7.1355 4H10.1355C10.2681 4 10.3953 3.94732 10.4891 3.85355C10.5828 3.75979 10.6355 3.63261 10.6355 3.5C10.6355 3.36739 10.5828 3.24021 10.4891 3.14645C10.3953 3.05268 10.2681 3 10.1355 3H7.1355Z" fill="#7800F0"/>
<path fill-rule="evenodd" clip-rule="evenodd" d="M6.1355 0C5.73767 0 5.35614 0.158035 5.07484 0.43934C4.79353 0.720644 4.6355 1.10218 4.6355 1.5V11.5C4.6355 11.8978 4.79353 12.2794 5.07484 12.5607C5.35614 12.842 5.73767 13 6.1355 13H14.1355C14.5333 13 14.9149 12.842 15.1962 12.5607C15.4775 12.2794 15.6355 11.8978 15.6355 11.5V3.914C15.6351 3.51631 15.4769 3.13503 15.1955 2.854L12.7815 0.439C12.5003 0.157982 12.119 8.48813e-05 11.7215 0H6.1355ZM5.78194 1.14645C5.68818 1.24021 5.6355 1.36739 5.6355 1.5V6.5V11.5C5.6355 11.6326 5.68818 11.7598 5.78194 11.8536C5.87571 11.9473 6.00289 12 6.1355 12H14.1355C14.2681 12 14.3953 11.9473 14.4891 11.8536C14.5828 11.7598 14.6355 11.6326 14.6355 11.5V3.914C14.6355 3.78165 14.583 3.65471 14.4895 3.561L12.0745 1.146C11.9808 1.05253 11.8539 1.00003 11.7215 1H6.1355C6.00289 1 5.87571 1.05268 5.78194 1.14645Z" fill="#7800F0"/>
<rect x="3.07269" y="2.8938" width="10.6195" height="10.8673" transform="rotate(-0.301054 3.07269 2.8938)" fill="#EEF7EF"/>
<path fill-rule="evenodd" clip-rule="evenodd" d="M3 4.5C3 4.36739 3.05268 4.24021 3.14645 4.14645C3.24021 4.05268 3.36739 4 3.5 4H9.086C9.21835 4.00003 9.34529 4.05253 9.439 4.146L11.854 6.561C11.9475 6.65471 12 6.78165 12 6.914V14.5C12 14.6326 11.9473 14.7598 11.8536 14.8536C11.7598 14.9473 11.6326 15 11.5 15H3.5C3.36739 15 3.24021 14.9473 3.14645 14.8536C3.05268 14.7598 3 14.6326 3 14.5V4.5ZM3.5 3C3.10218 3 2.72064 3.15804 2.43934 3.43934C2.15804 3.72064 2 4.10218 2 4.5V14.5C2 14.8978 2.15804 15.2794 2.43934 15.5607C2.72064 15.842 3.10218 16 3.5 16H11.5C11.8978 16 12.2794 15.842 12.5607 15.5607C12.842 15.2794 13 14.8978 13 14.5V6.914C12.9996 6.51631 12.8414 6.13503 12.56 5.854L10.146 3.439C9.8648 3.15798 9.48355 3.00008 9.086 3H3.5ZM4.5 6C4.36739 6 4.24021 6.05268 4.14645 6.14645C4.05268 6.24021 4 6.36739 4 6.5C4 6.63261 4.05268 6.75979 4.14645 6.85355C4.24021 6.94732 4.36739 7 4.5 7H7.5C7.63261 7 7.75979 6.94732 7.85355 6.85355C7.94732 6.75979 8 6.63261 8 6.5C8 6.36739 7.94732 6.24021 7.85355 6.14645C7.75979 6.05268 7.63261 6 7.5 6H4.5ZM4.5 9C4.36739 9 4.24021 9.05268 4.14645 9.14645C4.05268 9.24021 4 9.36739 4 9.5C4 9.63261 4.05268 9.75979 4.14645 9.85355C4.24021 9.94732 4.36739 10 4.5 10H10.5C10.6326 10 10.7598 9.94732 10.8536 9.85355C10.9473 9.75979 11 9.63261 11 9.5C11 9.36739 10.9473 9.24021 10.8536 9.14645C10.7598 9.05268 10.6326 9 10.5 9H4.5ZM4.5 12C4.36739 12 4.24021 12.0527 4.14645 12.1464C4.05268 12.2402 4 12.3674 4 12.5C4 12.6326 4.05268 12.7598 4.14645 12.8536C4.24021 12.9473 4.36739 13 4.5 13H10.5C10.6326 13 10.7598 12.9473 10.8536 12.8536C10.9473 12.7598 11 12.6326 11 12.5C11 12.3674 10.9473 12.2402 10.8536 12.1464C10.7598 12.0527 10.6326 12 10.5 12H4.5Z" fill="#7800F0"/>
</svg>
