<svg width="136" height="41" viewBox="0 0 136 41" fill="none" xmlns="http://www.w3.org/2000/svg">
<path d="M130.664 0.5H5.66406C2.90264 0.5 0.664062 2.73858 0.664062 5.5V35.5C0.664062 38.2614 2.90264 40.5 5.66406 40.5H130.664C133.425 40.5 135.664 38.2614 135.664 35.5V5.5C135.664 2.73858 133.425 0.5 130.664 0.5Z" fill="black"/>
<path d="M130.664 1.3C131.778 1.3 132.846 1.7425 133.634 2.53015C134.422 3.3178 134.864 4.38609 134.864 5.5V35.5C134.864 36.6139 134.422 37.6822 133.634 38.4698C132.846 39.2575 131.778 39.7 130.664 39.7H5.66406C4.55015 39.7 3.48187 39.2575 2.69421 38.4698C1.90656 37.6822 1.46406 36.6139 1.46406 35.5V5.5C1.46406 4.38609 1.90656 3.3178 2.69421 2.53015C3.48187 1.7425 4.55015 1.3 5.66406 1.3H130.664ZM130.664 0.5H5.66406C4.33798 0.5 3.06621 1.02678 2.12853 1.96447C1.19085 2.90215 0.664063 4.17392 0.664062 5.5V35.5C0.664063 36.8261 1.19085 38.0979 2.12853 39.0355C3.06621 39.9732 4.33798 40.5 5.66406 40.5H130.664C131.99 40.5 133.262 39.9732 134.2 39.0355C135.137 38.0979 135.664 36.8261 135.664 35.5V5.5C135.664 4.17392 135.137 2.90215 134.2 1.96447C133.262 1.02678 131.99 0.5 130.664 0.5Z" fill="#A6A6A6"/>
<path d="M45.0398 10.9858H47.1307V13.8869C46.817 13.9933 46.4937 14.0724 46.1609 14.1242C45.8309 14.176 45.4613 14.202 45.0521 14.202C44.4301 14.202 43.905 14.0778 43.4767 13.8296C43.0512 13.5814 42.7279 13.2281 42.507 12.7698C42.286 12.3088 42.1755 11.7619 42.1755 11.129C42.1755 10.5098 42.2969 9.96967 42.5397 9.50866C42.7852 9.04765 43.1385 8.6903 43.5995 8.43661C44.0632 8.18019 44.6197 8.05198 45.2689 8.05198C45.6017 8.05198 45.9168 8.08335 46.2141 8.14609C46.5142 8.20611 46.7924 8.29203 47.0489 8.40388L46.7829 9.00946C46.5619 8.91399 46.3178 8.83215 46.0505 8.76396C45.7859 8.69576 45.5117 8.66166 45.228 8.66166C44.7397 8.66166 44.321 8.76259 43.9718 8.96445C43.6254 9.16632 43.3594 9.45138 43.1739 9.81964C42.9912 10.1879 42.8998 10.6244 42.8998 11.129C42.8998 11.6282 42.9803 12.0633 43.1412 12.4343C43.3021 12.8026 43.5531 13.089 43.8941 13.2936C44.2351 13.4982 44.6743 13.6005 45.2117 13.6005C45.4817 13.6005 45.7136 13.5855 45.9073 13.5554C46.1009 13.5227 46.2769 13.4845 46.4351 13.4409V11.6078H45.0398V10.9858ZM51.9099 14.1201H48.5792V8.13791H51.9099V8.75168H49.2748V10.6871H51.7585V11.2927H49.2748V13.5063H51.9099V14.1201ZM55.0729 14.1201H54.3732V8.75168H52.491V8.13791H56.9469V8.75168H55.0729V14.1201ZM60.028 14.1201V8.13791H60.7237V14.1201H60.028ZM64.2058 14.1201H63.5061V8.75168H61.6238V8.13791H66.0798V8.75168H64.2058V14.1201ZM74.3493 11.1208C74.3493 11.5818 74.2907 12.0019 74.1734 12.3811C74.0561 12.7575 73.8815 13.0822 73.6496 13.355C73.4205 13.625 73.1354 13.8337 72.7945 13.981C72.4535 14.1283 72.0579 14.202 71.6078 14.202C71.1441 14.202 70.739 14.1283 70.3926 13.981C70.0489 13.8337 69.7624 13.6236 69.5333 13.3509C69.3069 13.0781 69.1364 12.7521 69.0218 12.3729C68.91 11.9937 68.8541 11.5737 68.8541 11.1126C68.8541 10.5016 68.955 9.96558 69.1568 9.50457C69.3587 9.04356 69.6642 8.68485 70.0734 8.42843C70.4853 8.17201 71.0009 8.0438 71.6201 8.0438C72.2121 8.0438 72.7099 8.17064 73.1136 8.42434C73.5201 8.67803 73.827 9.03538 74.0343 9.49639C74.2443 9.95467 74.3493 10.4961 74.3493 11.1208ZM69.5865 11.1208C69.5865 11.6282 69.6588 12.0674 69.8034 12.4384C69.9479 12.8094 70.1689 13.0958 70.4662 13.2977C70.7663 13.4995 71.1468 13.6005 71.6078 13.6005C72.0716 13.6005 72.4507 13.4995 72.7454 13.2977C73.0427 13.0958 73.2623 12.8094 73.4041 12.4384C73.546 12.0674 73.6169 11.6282 73.6169 11.1208C73.6169 10.3488 73.4546 9.74599 73.13 9.31226C72.8081 8.8758 72.3048 8.65757 71.6201 8.65757C71.1564 8.65757 70.7745 8.75714 70.4744 8.95627C70.1743 9.1554 69.9507 9.4391 69.8034 9.80736C69.6588 10.1729 69.5865 10.6107 69.5865 11.1208ZM80.3602 14.1201H79.5582L76.297 9.09539H76.2643C76.2725 9.22906 76.282 9.38182 76.2929 9.55367C76.3039 9.7228 76.312 9.9042 76.3175 10.0979C76.3257 10.2888 76.3298 10.4839 76.3298 10.683V14.1201H75.6833V8.13791H76.4812L79.73 13.1463H79.7587C79.7532 13.0508 79.7464 12.9158 79.7382 12.7412C79.73 12.5639 79.7219 12.3743 79.7137 12.1724C79.7082 11.9678 79.7055 11.7782 79.7055 11.6037V8.13791H80.3602V14.1201Z" fill="white"/>
<path d="M45.0398 10.9858V10.8858H44.9398V10.9858H45.0398ZM47.1307 10.9858H47.2307V10.8858H47.1307V10.9858ZM47.1307 13.8869L47.1628 13.9816L47.2307 13.9586V13.8869H47.1307ZM46.1609 14.1242L46.1456 14.0254L46.1454 14.0254L46.1609 14.1242ZM43.4767 13.8296L43.4263 13.916L43.4266 13.9161L43.4767 13.8296ZM42.507 12.7698L42.4168 12.813L42.4169 12.8133L42.507 12.7698ZM42.5397 9.50866L42.4514 9.46166L42.4512 9.46207L42.5397 9.50866ZM43.5995 8.43661L43.6477 8.52422L43.6479 8.52412L43.5995 8.43661ZM46.2141 8.14609L46.1935 8.24394L46.1945 8.24415L46.2141 8.14609ZM47.0489 8.40388L47.1404 8.44409L47.1807 8.3523L47.0888 8.31222L47.0489 8.40388ZM46.7829 9.00946L46.7432 9.10126L46.8345 9.14069L46.8745 9.04967L46.7829 9.00946ZM46.0505 8.76396L46.0255 8.86079L46.0258 8.86085L46.0505 8.76396ZM43.9718 8.96445L43.9218 8.87788L43.9215 8.87805L43.9718 8.96445ZM43.1739 9.81964L43.0846 9.77465L43.0844 9.77518L43.1739 9.81964ZM43.1412 12.4343L43.0495 12.4741L43.0496 12.4743L43.1412 12.4343ZM43.8941 13.2936L43.8426 13.3793L43.8941 13.2936ZM45.9073 13.5554L45.9226 13.6543L45.9239 13.6541L45.9073 13.5554ZM46.4351 13.4409L46.4617 13.5373L46.5351 13.517V13.4409H46.4351ZM46.4351 11.6078H46.5351V11.5078H46.4351V11.6078ZM45.0398 11.6078H44.9398V11.7078H45.0398V11.6078ZM45.0398 11.0858H47.1307V10.8858H45.0398V11.0858ZM47.0307 10.9858V13.8869H47.2307V10.9858H47.0307ZM47.0986 13.7922C46.7904 13.8967 46.4728 13.9744 46.1456 14.0254L46.1763 14.223C46.5147 14.1703 46.8436 14.0899 47.1628 13.9816L47.0986 13.7922ZM46.1454 14.0254C45.8215 14.0763 45.4572 14.102 45.0521 14.102V14.302C45.4653 14.302 45.8403 14.2758 46.1765 14.223L46.1454 14.0254ZM45.0521 14.102C44.4433 14.102 43.9365 13.9805 43.5269 13.7431L43.4266 13.9161C43.8735 14.1752 44.417 14.302 45.0521 14.302V14.102ZM43.5271 13.7432C43.1194 13.5054 42.8097 13.1673 42.597 12.7264L42.4169 12.8133C42.6462 13.2889 42.983 13.6574 43.4263 13.916L43.5271 13.7432ZM42.5971 12.7266C42.384 12.2819 42.2755 11.7504 42.2755 11.129H42.0755C42.0755 11.7734 42.188 12.3357 42.4168 12.813L42.5971 12.7266ZM42.2755 11.129C42.2755 10.523 42.3943 9.99943 42.6282 9.55526L42.4512 9.46207C42.1996 9.93992 42.0755 10.4966 42.0755 11.129H42.2755ZM42.628 9.55567C42.8643 9.11193 43.2036 8.76863 43.6477 8.52422L43.5513 8.349C43.0734 8.61198 42.7061 8.98338 42.4514 9.46166L42.628 9.55567ZM43.6479 8.52412C44.0938 8.27755 44.6329 8.15198 45.2689 8.15198V7.95198C44.6066 7.95198 44.0326 8.08284 43.5511 8.3491L43.6479 8.52412ZM45.2689 8.15198C45.5954 8.15198 45.9036 8.18276 46.1935 8.24394L46.2348 8.04825C45.9301 7.98395 45.608 7.95198 45.2689 7.95198V8.15198ZM46.1945 8.24415C46.4882 8.30289 46.7596 8.3868 47.0089 8.49554L47.0888 8.31222C46.8253 8.19727 46.5402 8.10932 46.2338 8.04804L46.1945 8.24415ZM46.9573 8.36367L46.6913 8.96925L46.8745 9.04967L47.1404 8.44409L46.9573 8.36367ZM46.8226 8.91767C46.5961 8.81982 46.3469 8.73637 46.0752 8.66706L46.0258 8.86085C46.2887 8.92793 46.5278 9.00815 46.7432 9.10126L46.8226 8.91767ZM46.0754 8.66712C45.8024 8.59674 45.5198 8.56166 45.228 8.56166V8.76166C45.5036 8.76166 45.7694 8.79477 46.0255 8.86079L46.0754 8.66712ZM45.228 8.56166C44.7259 8.56166 44.2891 8.66554 43.9218 8.87788L44.0219 9.05103C44.3529 8.85964 44.7536 8.76166 45.228 8.76166V8.56166ZM43.9215 8.87805C43.5578 9.08994 43.2786 9.38962 43.0846 9.77465L43.2632 9.86462C43.4403 9.51313 43.693 9.24269 44.0222 9.05086L43.9215 8.87805ZM43.0844 9.77518C42.8934 10.16 42.7998 10.6124 42.7998 11.129H42.9998C42.9998 10.6363 43.089 10.2158 43.2635 9.86409L43.0844 9.77518ZM42.7998 11.129C42.7998 11.6388 42.882 12.088 43.0495 12.4741L43.2329 12.3945C43.0786 12.0386 42.9998 11.6176 42.9998 11.129H42.7998ZM43.0496 12.4743C43.2187 12.8614 43.4836 13.1639 43.8426 13.3793L43.9455 13.2078C43.6226 13.014 43.3856 12.7437 43.2328 12.3943L43.0496 12.4743ZM43.8426 13.3793C44.2037 13.596 44.6623 13.7005 45.2117 13.7005V13.5005C44.6862 13.5005 44.2664 13.4004 43.9455 13.2078L43.8426 13.3793ZM45.2117 13.7005C45.4851 13.7005 45.7223 13.6853 45.9226 13.6543L45.8919 13.4566C45.7048 13.4856 45.4783 13.5005 45.2117 13.5005V13.7005ZM45.9239 13.6541C46.1203 13.6209 46.2996 13.582 46.4617 13.5373L46.4085 13.3445C46.2541 13.3871 46.0816 13.4246 45.8906 13.4568L45.9239 13.6541ZM46.5351 13.4409V11.6078H46.3351V13.4409H46.5351ZM46.4351 11.5078H45.0398V11.7078H46.4351V11.5078ZM45.1398 11.6078V10.9858H44.9398V11.6078H45.1398ZM51.9099 14.1201V14.2201H52.0099V14.1201H51.9099ZM48.5792 14.1201H48.4792V14.2201H48.5792V14.1201ZM48.5792 8.13791V8.03791H48.4792V8.13791H48.5792ZM51.9099 8.13791H52.0099V8.03791H51.9099V8.13791ZM51.9099 8.75168V8.85168H52.0099V8.75168H51.9099ZM49.2748 8.75168V8.65168H49.1748V8.75168H49.2748ZM49.2748 10.6871H49.1748V10.7871H49.2748V10.6871ZM51.7585 10.6871H51.8585V10.5871H51.7585V10.6871ZM51.7585 11.2927V11.3927H51.8585V11.2927H51.7585ZM49.2748 11.2927V11.1927H49.1748V11.2927H49.2748ZM49.2748 13.5063H49.1748V13.6063H49.2748V13.5063ZM51.9099 13.5063H52.0099V13.4063H51.9099V13.5063ZM51.9099 14.0201H48.5792V14.2201H51.9099V14.0201ZM48.6792 14.1201V8.13791H48.4792V14.1201H48.6792ZM48.5792 8.23791H51.9099V8.03791H48.5792V8.23791ZM51.8099 8.13791V8.75168H52.0099V8.13791H51.8099ZM51.9099 8.65168H49.2748V8.85168H51.9099V8.65168ZM49.1748 8.75168V10.6871H49.3748V8.75168H49.1748ZM49.2748 10.7871H51.7585V10.5871H49.2748V10.7871ZM51.6585 10.6871V11.2927H51.8585V10.6871H51.6585ZM51.7585 11.1927H49.2748V11.3927H51.7585V11.1927ZM49.1748 11.2927V13.5063H49.3748V11.2927H49.1748ZM49.2748 13.6063H51.9099V13.4063H49.2748V13.6063ZM51.8099 13.5063V14.1201H52.0099V13.5063H51.8099ZM55.0729 14.1201V14.2201H55.1729V14.1201H55.0729ZM54.3732 14.1201H54.2732V14.2201H54.3732V14.1201ZM54.3732 8.75168H54.4732V8.65168H54.3732V8.75168ZM52.491 8.75168H52.391V8.85168H52.491V8.75168ZM52.491 8.13791V8.03791H52.391V8.13791H52.491ZM56.9469 8.13791H57.0469V8.03791H56.9469V8.13791ZM56.9469 8.75168V8.85168H57.0469V8.75168H56.9469ZM55.0729 8.75168V8.65168H54.9729V8.75168H55.0729ZM55.0729 14.0201H54.3732V14.2201H55.0729V14.0201ZM54.4732 14.1201V8.75168H54.2732V14.1201H54.4732ZM54.3732 8.65168H52.491V8.85168H54.3732V8.65168ZM52.591 8.75168V8.13791H52.391V8.75168H52.591ZM52.491 8.23791H56.9469V8.03791H52.491V8.23791ZM56.8469 8.13791V8.75168H57.0469V8.13791H56.8469ZM56.9469 8.65168H55.0729V8.85168H56.9469V8.65168ZM54.9729 8.75168V14.1201H55.1729V8.75168H54.9729ZM60.028 14.1201H59.928V14.2201H60.028V14.1201ZM60.028 8.13791V8.03791H59.928V8.13791H60.028ZM60.7237 8.13791H60.8237V8.03791H60.7237V8.13791ZM60.7237 14.1201V14.2201H60.8237V14.1201H60.7237ZM60.128 14.1201V8.13791H59.928V14.1201H60.128ZM60.028 8.23791H60.7237V8.03791H60.028V8.23791ZM60.6237 8.13791V14.1201H60.8237V8.13791H60.6237ZM60.7237 14.0201H60.028V14.2201H60.7237V14.0201ZM64.2058 14.1201V14.2201H64.3058V14.1201H64.2058ZM63.5061 14.1201H63.4061V14.2201H63.5061V14.1201ZM63.5061 8.75168H63.6061V8.65168H63.5061V8.75168ZM61.6238 8.75168H61.5238V8.85168H61.6238V8.75168ZM61.6238 8.13791V8.03791H61.5238V8.13791H61.6238ZM66.0798 8.13791H66.1798V8.03791H66.0798V8.13791ZM66.0798 8.75168V8.85168H66.1798V8.75168H66.0798ZM64.2058 8.75168V8.65168H64.1058V8.75168H64.2058ZM64.2058 14.0201H63.5061V14.2201H64.2058V14.0201ZM63.6061 14.1201V8.75168H63.4061V14.1201H63.6061ZM63.5061 8.65168H61.6238V8.85168H63.5061V8.65168ZM61.7238 8.75168V8.13791H61.5238V8.75168H61.7238ZM61.6238 8.23791H66.0798V8.03791H61.6238V8.23791ZM65.9798 8.13791V8.75168H66.1798V8.13791H65.9798ZM66.0798 8.65168H64.2058V8.85168H66.0798V8.65168ZM64.1058 8.75168V14.1201H64.3058V8.75168H64.1058ZM74.1734 12.3811L74.2689 12.4109L74.2689 12.4107L74.1734 12.3811ZM73.6496 13.355L73.5734 13.2902L73.5734 13.2903L73.6496 13.355ZM72.7945 13.981L72.8341 14.0728L72.7945 13.981ZM70.3926 13.981L70.3532 14.0729L70.3534 14.073L70.3926 13.981ZM69.5333 13.3509L69.4563 13.4147L69.4567 13.4152L69.5333 13.3509ZM69.0218 12.3729L68.9259 12.4012L68.9261 12.4018L69.0218 12.3729ZM70.0734 8.42843L70.0206 8.34353L70.0203 8.34369L70.0734 8.42843ZM73.1136 8.42434L73.0604 8.50901L73.0607 8.50917L73.1136 8.42434ZM74.0343 9.49639L73.9431 9.5374L73.9434 9.53805L74.0343 9.49639ZM70.4662 13.2977L70.4101 13.3804L70.4104 13.3806L70.4662 13.2977ZM72.7454 13.2977L72.6892 13.2149L72.6888 13.2152L72.7454 13.2977ZM73.13 9.31226L73.0495 9.37161L73.0499 9.37218L73.13 9.31226ZM70.4744 8.95627L70.4191 8.87295L70.4744 8.95627ZM69.8034 9.80736L69.7105 9.77022L69.7104 9.77058L69.8034 9.80736ZM74.2493 11.1208C74.2493 11.5734 74.1918 11.9833 74.0779 12.3516L74.2689 12.4107C74.3896 12.0205 74.4493 11.5903 74.4493 11.1208H74.2493ZM74.0779 12.3514C73.9642 12.7163 73.7958 13.0287 73.5734 13.2902L73.7258 13.4197C73.9673 13.1357 74.148 12.7988 74.2689 12.4109L74.0779 12.3514ZM73.5734 13.2903C73.3547 13.548 73.0824 13.7477 72.7548 13.8892L72.8341 14.0728C73.1885 13.9197 73.4863 13.702 73.7259 13.4196L73.5734 13.2903ZM72.7548 13.8892C72.4287 14.0301 72.0471 14.102 71.6078 14.102V14.302C72.0687 14.302 72.4783 14.2265 72.8341 14.0728L72.7548 13.8892ZM71.6078 14.102C71.1545 14.102 70.7633 14.0299 70.4317 13.889L70.3534 14.073C70.7148 14.2267 71.1337 14.302 71.6078 14.302V14.102ZM70.432 13.8891C70.1019 13.7476 69.8284 13.5467 69.6099 13.2865L69.4567 13.4152C69.6964 13.7005 69.9958 13.9198 70.3532 14.0729L70.432 13.8891ZM69.6102 13.287C69.3933 13.0256 69.2287 12.7119 69.1175 12.344L68.9261 12.4018C69.0441 12.7923 69.2205 13.1305 69.4563 13.4147L69.6102 13.287ZM69.1177 12.3446C69.009 11.976 68.9541 11.5656 68.9541 11.1126H68.7541C68.7541 11.5817 68.8109 12.0115 68.9259 12.4012L69.1177 12.3446ZM68.9541 11.1126C68.9541 10.5125 69.0532 9.99064 69.2484 9.54468L69.0652 9.46446C68.8568 9.94052 68.7541 10.4907 68.7541 11.1126H68.9541ZM69.2484 9.54468C69.4426 9.10125 69.7351 8.75845 70.1265 8.51316L70.0203 8.34369C69.5934 8.61125 69.2748 8.98587 69.0652 9.46446L69.2484 9.54468ZM70.1263 8.51332C70.5185 8.26916 71.0145 8.1438 71.6201 8.1438V7.9438C70.9873 7.9438 70.4522 8.07485 70.0206 8.34353L70.1263 8.51332ZM71.6201 8.1438C72.1978 8.1438 72.6761 8.2675 73.0604 8.50901L73.1668 8.33966C72.7437 8.07379 72.2263 7.9438 71.6201 7.9438V8.1438ZM73.0607 8.50917C73.4494 8.75177 73.7434 9.09342 73.9431 9.5374L74.1255 9.45537C73.9105 8.97734 73.5908 8.60428 73.1666 8.3395L73.0607 8.50917ZM73.9434 9.53805C74.1462 9.98052 74.2493 10.5072 74.2493 11.1208H74.4493C74.4493 10.4851 74.3425 9.92881 74.1252 9.45472L73.9434 9.53805ZM69.4865 11.1208C69.4865 11.6374 69.56 12.0894 69.7102 12.4747L69.8965 12.4021C69.7575 12.0454 69.6865 11.6191 69.6865 11.1208H69.4865ZM69.7102 12.4747C69.8613 12.8624 70.0942 13.166 70.4101 13.3804L70.5224 13.2149C70.2436 13.0257 70.0346 12.7563 69.8965 12.4021L69.7102 12.4747ZM70.4104 13.3806C70.731 13.5963 71.1324 13.7005 71.6078 13.7005V13.5005C71.1613 13.5005 70.8016 13.4028 70.522 13.2147L70.4104 13.3806ZM71.6078 13.7005C72.0858 13.7005 72.4863 13.5964 72.8019 13.3802L72.6888 13.2152C72.4152 13.4027 72.0574 13.5005 71.6078 13.5005V13.7005ZM72.8015 13.3804C73.1176 13.1658 73.3492 12.8621 73.4975 12.4741L73.3107 12.4027C73.1754 12.7567 72.9678 13.0258 72.6892 13.2149L72.8015 13.3804ZM73.4975 12.4741C73.6448 12.089 73.7169 11.6372 73.7169 11.1208H73.5169C73.5169 11.6192 73.4472 12.0458 73.3107 12.4027L73.4975 12.4741ZM73.7169 11.1208C73.7169 10.3361 73.5521 9.70934 73.21 9.25234L73.0499 9.37218C73.3571 9.78263 73.5169 10.3615 73.5169 11.1208H73.7169ZM73.2105 9.2529C72.8648 8.78426 72.3273 8.55757 71.6201 8.55757V8.75757C72.2823 8.75757 72.7513 8.96734 73.0495 9.37161L73.2105 9.2529ZM71.6201 8.55757C71.1423 8.55757 70.7397 8.6602 70.4191 8.87295L70.5297 9.03959C70.8093 8.85407 71.1704 8.75757 71.6201 8.75757V8.55757ZM70.4191 8.87295C70.1004 9.08444 69.8645 9.38511 69.7105 9.77022L69.8962 9.8445C70.0368 9.49309 70.2483 9.22637 70.5297 9.03959L70.4191 8.87295ZM69.7104 9.77058C69.56 10.1507 69.4865 10.6017 69.4865 11.1208H69.6865C69.6865 10.6197 69.7575 10.1951 69.8963 9.84414L69.7104 9.77058ZM80.3602 14.1201V14.2201H80.4602V14.1201H80.3602ZM79.5582 14.1201L79.4743 14.1746L79.5039 14.2201H79.5582V14.1201ZM76.297 9.09539L76.3809 9.04095L76.3513 8.99539H76.297V9.09539ZM76.2643 9.09539V8.99539H76.158L76.1645 9.1015L76.2643 9.09539ZM76.2929 9.55367L76.1931 9.56001L76.1931 9.56011L76.2929 9.55367ZM76.3175 10.0979L76.2175 10.1007L76.2176 10.1022L76.3175 10.0979ZM76.3298 14.1201V14.2201H76.4298V14.1201H76.3298ZM75.6833 14.1201H75.5833V14.2201H75.6833V14.1201ZM75.6833 8.13791V8.03791H75.5833V8.13791H75.6833ZM76.4812 8.13791L76.5651 8.08349L76.5355 8.03791H76.4812V8.13791ZM79.73 13.1463L79.6462 13.2007L79.6757 13.2463H79.73V13.1463ZM79.7587 13.1463V13.2463H79.8646L79.8585 13.1406L79.7587 13.1463ZM79.7382 12.7412L79.6383 12.7458L79.6383 12.7459L79.7382 12.7412ZM79.7137 12.1724L79.6137 12.1751L79.6138 12.1765L79.7137 12.1724ZM79.7055 8.13791V8.03791H79.6055V8.13791H79.7055ZM80.3602 8.13791H80.4602V8.03791H80.3602V8.13791ZM80.3602 14.0201H79.5582V14.2201H80.3602V14.0201ZM79.6421 14.0657L76.3809 9.04095L76.2131 9.14983L79.4743 14.1746L79.6421 14.0657ZM76.297 8.99539H76.2643V9.19539H76.297V8.99539ZM76.1645 9.1015C76.1727 9.23526 76.1822 9.3881 76.1931 9.56001L76.3927 9.54734C76.3818 9.37554 76.3723 9.22285 76.3641 9.08928L76.1645 9.1015ZM76.1931 9.56011C76.204 9.72788 76.2121 9.90806 76.2175 10.1007L76.4175 10.0951C76.412 9.90035 76.4037 9.71772 76.3927 9.54723L76.1931 9.56011ZM76.2176 10.1022C76.2257 10.2916 76.2298 10.4852 76.2298 10.683H76.4298C76.4298 10.4825 76.4256 10.286 76.4174 10.0936L76.2176 10.1022ZM76.2298 10.683V14.1201H76.4298V10.683H76.2298ZM76.3298 14.0201H75.6833V14.2201H76.3298V14.0201ZM75.7833 14.1201V8.13791H75.5833V14.1201H75.7833ZM75.6833 8.23791H76.4812V8.03791H75.6833V8.23791ZM76.3973 8.19233L79.6462 13.2007L79.8139 13.0918L76.5651 8.08349L76.3973 8.19233ZM79.73 13.2463H79.7587V13.0463H79.73V13.2463ZM79.8585 13.1406C79.8531 13.0456 79.8463 12.911 79.8381 12.7365L79.6383 12.7459C79.6465 12.9206 79.6534 13.056 79.6589 13.152L79.8585 13.1406ZM79.8381 12.7366C79.83 12.5595 79.8218 12.3701 79.8136 12.1684L79.6138 12.1765C79.622 12.3785 79.6301 12.5683 79.6383 12.7458L79.8381 12.7366ZM79.8136 12.1698C79.8082 11.9659 79.8055 11.7772 79.8055 11.6037H79.6055C79.6055 11.7793 79.6082 11.9698 79.6137 12.1751L79.8136 12.1698ZM79.8055 11.6037V8.13791H79.6055V11.6037H79.8055ZM79.7055 8.23791H80.3602V8.03791H79.7055V8.23791ZM80.2602 8.13791V14.1201H80.4602V8.13791H80.2602Z" fill="white"/>
<path d="M68.8042 22.2499C67.9616 22.2519 67.1386 22.5037 66.4391 22.9734C65.7397 23.4432 65.1952 24.1098 64.8746 24.8889C64.554 25.6681 64.4717 26.5248 64.638 27.3508C64.8043 28.1768 65.2118 28.9349 65.809 29.5293C66.4061 30.1236 67.1662 30.5276 67.9929 30.69C68.8196 30.8524 69.676 30.7661 70.4536 30.4418C71.2313 30.1175 71.8953 29.57 72.3618 28.8683C72.8282 28.1667 73.0761 27.3425 73.0742 26.4999C73.0823 25.9379 72.9773 25.3799 72.7653 24.8593C72.5534 24.3386 72.2388 23.866 71.8404 23.4694C71.442 23.0729 70.9679 22.7606 70.4463 22.551C69.9246 22.3415 69.3662 22.2391 68.8042 22.2499ZM68.8042 29.0799C68.2877 29.116 67.7724 28.996 67.3251 28.7353C66.8779 28.4747 66.5193 28.0855 66.2962 27.6184C66.073 27.1512 65.9956 26.6278 66.0738 26.1161C66.1521 25.6043 66.3825 25.128 66.7351 24.749C67.0877 24.3699 67.5462 24.1057 68.0509 23.9907C68.5557 23.8757 69.0833 23.9152 69.5653 24.104C70.0474 24.2929 70.4614 24.6223 70.7537 25.0496C71.0459 25.4769 71.2029 25.9822 71.2042 26.4999C71.2203 26.8279 71.1705 27.1559 71.0579 27.4643C70.9452 27.7728 70.772 28.0556 70.5483 28.2961C70.3246 28.5366 70.0551 28.7298 69.7555 28.8644C69.456 28.999 69.1325 29.0723 68.8042 29.0799ZM59.4842 22.2499C58.6416 22.2519 57.8186 22.5037 57.1191 22.9734C56.4197 23.4432 55.8752 24.1098 55.5546 24.8889C55.234 25.6681 55.1517 26.5248 55.318 27.3508C55.4843 28.1768 55.8918 28.9349 56.489 29.5293C57.0861 30.1236 57.8462 30.5276 58.6729 30.69C59.4996 30.8524 60.356 30.7661 61.1336 30.4418C61.9113 30.1175 62.5753 29.57 63.0418 28.8683C63.5082 28.1667 63.7561 27.3425 63.7542 26.4999C63.7623 25.9379 63.6573 25.3799 63.4453 24.8593C63.2334 24.3386 62.9188 23.866 62.5204 23.4694C62.122 23.0729 61.6479 22.7606 61.1263 22.551C60.6046 22.3415 60.0462 22.2391 59.4842 22.2499ZM59.4842 29.0799C58.9677 29.116 58.4524 28.996 58.0051 28.7353C57.5579 28.4747 57.1993 28.0855 56.9762 27.6184C56.753 27.1512 56.6756 26.6278 56.7538 26.1161C56.8321 25.6043 57.0625 25.128 57.4151 24.749C57.7677 24.3699 58.2262 24.1057 58.7309 23.9907C59.2357 23.8757 59.7633 23.9152 60.2453 24.104C60.7274 24.2929 61.1414 24.6223 61.4337 25.0496C61.7259 25.4769 61.8829 25.9822 61.8842 26.4999C61.9003 26.8279 61.8505 27.1559 61.7379 27.4643C61.6252 27.7728 61.452 28.0556 61.2283 28.2961C61.0046 28.5366 60.7351 28.7298 60.4355 28.8644C60.136 28.999 59.8125 29.0723 59.4842 29.0799ZM48.4042 23.5599V25.3599H52.7242C52.6564 26.2077 52.304 27.0077 51.7242 27.6299C51.2908 28.0714 50.7696 28.4171 50.1943 28.6444C49.6189 28.8718 49.0023 28.9759 48.3842 28.9499C47.1111 28.9499 45.8902 28.4442 44.99 27.544C44.0899 26.6439 43.5842 25.423 43.5842 24.1499C43.5842 22.8769 44.0899 21.656 44.99 20.7558C45.8902 19.8556 47.1111 19.3499 48.3842 19.3499C49.6046 19.3318 50.7831 19.7952 51.6642 20.6399L52.9342 19.3699C52.3381 18.7804 51.6305 18.3158 50.8526 18.0033C50.0748 17.6908 49.2424 17.5366 48.4042 17.5499C47.5152 17.5153 46.6283 17.6605 45.7968 17.9769C44.9652 18.2932 44.2061 18.7742 43.5649 19.3909C42.9237 20.0077 42.4136 20.7475 42.0652 21.5661C41.7167 22.3847 41.5371 23.2652 41.5371 24.1549C41.5371 25.0446 41.7167 25.9251 42.0652 26.7437C42.4136 27.5623 42.9237 28.3022 43.5649 28.9189C44.2061 29.5357 44.9652 30.0166 45.7968 30.333C46.6283 30.6493 47.5152 30.7945 48.4042 30.7599C49.2596 30.7941 50.1126 30.6469 50.9071 30.3281C51.7016 30.0092 52.4197 29.5259 53.0142 28.9099C54.0643 27.7563 54.6238 26.2391 54.5742 24.6799C54.5777 24.3046 54.5476 23.9298 54.4842 23.5599H48.4042ZM93.7142 24.9599C93.4534 24.1927 92.9657 23.5227 92.3157 23.0388C91.6657 22.5548 90.884 22.2797 90.0742 22.2499C89.5272 22.2489 88.9857 22.36 88.4834 22.5765C87.981 22.7929 87.5284 23.1101 87.1535 23.5085C86.7786 23.9068 86.4894 24.3778 86.3038 24.8923C86.1181 25.4068 86.04 25.954 86.0742 26.4999C86.0656 27.4128 86.3526 28.3039 86.8923 29.0402C87.432 29.7765 88.1953 30.3184 89.0684 30.5851C89.9415 30.8517 90.8774 30.8288 91.7364 30.5196C92.5953 30.2105 93.3312 29.6318 93.8342 28.8699L92.3842 27.8699C92.168 28.2302 91.8614 28.5277 91.4948 28.7329C91.1282 28.9382 90.7143 29.044 90.2942 29.0399C89.8607 29.0578 89.432 28.9442 89.0644 28.714C88.6967 28.4837 88.4073 28.1477 88.2342 27.7499L93.9242 25.3999L93.7142 24.9599ZM87.9142 26.3799C87.8939 26.0693 87.9358 25.7578 88.0374 25.4635C88.1391 25.1693 88.2984 24.8983 88.5061 24.6664C88.7137 24.4346 88.9656 24.2464 89.2469 24.1131C89.5281 23.9798 89.8332 23.9039 90.1442 23.8899C90.4664 23.8703 90.7872 23.9461 91.0665 24.108C91.3458 24.2699 91.5711 24.5106 91.7142 24.7999L87.9142 26.3799ZM83.2942 30.4999H85.1642V17.9999H83.2942V30.4999ZM80.2342 23.1999H80.1642C79.8848 22.8818 79.54 22.6277 79.1534 22.4551C78.7668 22.2825 78.3475 22.1955 77.9242 22.1999C76.8313 22.2529 75.8008 22.7243 75.0461 23.5165C74.2915 24.3087 73.8705 25.3608 73.8705 26.4549C73.8705 27.549 74.2915 28.6012 75.0461 29.3933C75.8008 30.1855 76.8313 30.6569 77.9242 30.7099C78.3481 30.7184 78.7687 30.6332 79.156 30.4603C79.5432 30.2875 79.8874 30.0312 80.1642 29.7099H80.2342V30.3199C80.2342 31.9499 79.3642 32.8199 77.9642 32.8199C77.4965 32.8096 77.0424 32.6606 76.6596 32.3918C76.2768 32.1229 75.9825 31.7464 75.8142 31.3099L74.1942 31.9799C74.4937 32.7322 75.0144 33.3758 75.6876 33.8258C76.3607 34.2757 77.1546 34.5108 77.9642 34.4999C80.1542 34.4999 81.9642 33.2099 81.9642 30.0699V22.4999H80.2342V23.1999ZM78.0842 29.0799C77.429 29.0391 76.814 28.75 76.3645 28.2716C75.9149 27.7932 75.6647 27.1614 75.6647 26.5049C75.6647 25.8485 75.9149 25.2167 76.3645 24.7383C76.814 24.2598 77.429 23.9708 78.0842 23.9299C78.4044 23.9437 78.7186 24.0218 79.008 24.1596C79.2975 24.2973 79.5562 24.4918 79.769 24.7316C79.9817 24.9714 80.144 25.2515 80.2462 25.5553C80.3485 25.8591 80.3886 26.1803 80.3642 26.4999C80.3914 26.8206 80.3534 27.1435 80.2523 27.4491C80.1513 27.7546 79.9893 28.0365 79.7761 28.2777C79.563 28.5189 79.3032 28.7143 79.0124 28.8522C78.7215 28.9901 78.4058 29.0676 78.0842 29.0799ZM102.474 17.9999H97.9942V30.4999H99.8642V25.7599H102.474C103.007 25.7982 103.542 25.7263 104.046 25.5487C104.55 25.371 105.012 25.0915 105.403 24.7274C105.794 24.3634 106.106 23.9227 106.32 23.4328C106.533 22.9428 106.643 22.4142 106.643 21.8799C106.643 21.3456 106.533 20.817 106.32 20.3271C106.106 19.8372 105.794 19.3965 105.403 19.0324C105.012 18.6684 104.55 18.3888 104.046 18.2112C103.542 18.0336 103.007 17.9616 102.474 17.9999ZM102.474 23.9999H99.8642V19.7399H102.514C102.795 19.7399 103.073 19.7953 103.333 19.9028C103.593 20.0104 103.829 20.168 104.027 20.3667C104.226 20.5654 104.384 20.8013 104.491 21.061C104.599 21.3206 104.654 21.5989 104.654 21.8799C104.654 22.161 104.599 22.4392 104.491 22.6989C104.384 22.9585 104.226 23.1944 104.027 23.3931C103.829 23.5918 103.593 23.7495 103.333 23.857C103.073 23.9646 102.795 24.0199 102.514 24.0199L102.474 23.9999ZM114.014 22.2099C113.333 22.1679 112.655 22.3265 112.063 22.6659C111.471 23.0054 110.992 23.5109 110.684 24.1199L112.334 24.8099C112.501 24.5093 112.751 24.2634 113.055 24.102C113.358 23.9405 113.702 23.8703 114.044 23.8999C114.282 23.8722 114.522 23.892 114.752 23.9582C114.981 24.0245 115.196 24.1358 115.382 24.2856C115.568 24.4355 115.722 24.6209 115.836 24.8311C115.95 25.0413 116.021 25.2721 116.044 25.5099V25.6299C115.443 25.3138 114.774 25.1491 114.094 25.1499C112.314 25.1499 110.494 26.1499 110.494 27.9699C110.512 28.3568 110.607 28.7361 110.774 29.0855C110.941 29.4348 111.177 29.747 111.467 30.0035C111.757 30.2601 112.096 30.4557 112.463 30.5787C112.83 30.7018 113.218 30.7498 113.604 30.7199C114.073 30.7459 114.541 30.6466 114.959 30.4322C115.378 30.2178 115.731 29.8961 115.984 29.4999H116.044V30.4999H117.844V25.6899C117.844 23.4999 116.184 22.2299 114.054 22.2299L114.014 22.2099ZM113.784 29.0599C113.174 29.0599 112.324 28.7499 112.324 27.9999C112.324 26.9999 113.384 26.6599 114.324 26.6599C114.918 26.6453 115.505 26.7903 116.024 27.0799C115.961 27.623 115.704 28.1249 115.299 28.4926C114.895 28.8604 114.371 29.069 113.824 29.0799L113.784 29.0599ZM124.404 22.4999L122.264 27.9199H122.204L119.984 22.4999H117.984L121.314 30.0799L119.414 34.2899H121.364L126.484 22.4999H124.404ZM107.604 30.4999H109.464V17.9999H107.604V30.4999Z" fill="white"/>
<path d="M21.3839 19.9199L10.7339 31.2199C10.8502 31.6473 11.0633 32.0423 11.3565 32.3742C11.6498 32.7062 12.0154 32.9663 12.4252 33.1345C12.835 33.3026 13.278 33.3744 13.7199 33.3441C14.1618 33.3138 14.5909 33.1824 14.9739 32.9599L26.9739 26.0399L21.3839 19.9199Z" fill="#EA4335"/>
<path d="M32.1543 18L26.9743 15L21.1543 20.19L26.9943 26.04L32.1443 23.04C32.6021 22.7948 32.9848 22.43 33.2516 21.9845C33.5184 21.5389 33.6593 21.0293 33.6593 20.51C33.6593 19.9907 33.5184 19.4811 33.2516 19.0355C32.9848 18.59 32.6021 18.2252 32.1443 17.98L32.1543 18Z" fill="#FBBC04"/>
<path d="M10.7341 9.78027C10.6812 10.0165 10.6577 10.2583 10.6641 10.5003V30.5003C10.6659 30.7502 10.6995 30.9989 10.7641 31.2403L21.7641 20.2403L10.7341 9.78027Z" fill="#4285F4"/>
<path d="M21.4641 20.4996L26.9741 14.9896L14.9741 8.04965C14.5233 7.78165 14.0086 7.64002 13.4841 7.63965C12.8515 7.64146 12.2369 7.85082 11.7347 8.23558C11.2325 8.62035 10.8705 9.15927 10.7041 9.76965L21.4641 20.4996Z" fill="#34A853"/>
</svg>
