<svg width="58" height="58" viewBox="0 0 58 58" fill="none" xmlns="http://www.w3.org/2000/svg">
<path d="M58 29C58 12.9837 45.0163 0 29 0C12.9837 0 0 12.9837 0 29C0 45.0163 12.9837 58 29 58C45.0163 58 58 45.0163 58 29Z" fill="#F5F0FF"/>
<path d="M32.9756 40.0097H23.8261C23.5295 39.9996 23.2484 39.8747 23.0422 39.6614C22.836 39.448 22.7207 39.1629 22.7207 38.8662C22.7207 38.5694 22.836 38.2843 23.0422 38.071C23.2484 37.8576 23.5295 37.7327 23.8261 37.7227H32.9756C33.2721 37.7327 33.5532 37.8576 33.7594 38.071C33.9656 38.2843 34.0809 38.5694 34.0809 38.8662C34.0809 39.1629 33.9656 39.448 33.7594 39.6614C33.5532 39.8747 33.2721 39.9996 32.9756 40.0097Z" fill="#342AD5"/>
<path d="M28.3987 40.0112C28.0953 40.0112 27.8043 39.8907 27.5897 39.6761C27.3751 39.4615 27.2546 39.1705 27.2546 38.8671V18.2797C27.2494 18.1263 27.2751 17.9733 27.3302 17.8301C27.3853 17.6868 27.4687 17.556 27.5754 17.4456C27.6821 17.3353 27.8099 17.2475 27.9513 17.1875C28.0926 17.1276 28.2446 17.0967 28.3981 17.0967C28.5516 17.0967 28.7036 17.1276 28.8449 17.1875C28.9862 17.2475 29.1141 17.3353 29.2208 17.4456C29.3275 17.556 29.4109 17.6868 29.466 17.8301C29.5211 17.9733 29.5468 18.1263 29.5416 18.2797V38.8671C29.5416 39.1703 29.4212 39.4611 29.207 39.6756C28.9927 39.8902 28.702 40.0109 28.3987 40.0112Z" fill="#342AD5"/>
<path d="M36.4055 35.4341C35.1926 35.433 34.0296 34.9508 33.1718 34.0933C32.314 33.2358 31.8315 32.0729 31.8301 30.86C31.8301 30.7097 31.8597 30.561 31.9172 30.4221C31.9747 30.2833 32.059 30.1572 32.1652 30.0509C32.2714 29.9447 32.3976 29.8604 32.5364 29.8029C32.6752 29.7454 32.824 29.7158 32.9743 29.7158H39.8367C39.987 29.7158 40.1358 29.7454 40.2746 29.8029C40.4134 29.8604 40.5395 29.9447 40.6458 30.0509C40.752 30.1572 40.8363 30.2833 40.8938 30.4221C40.9513 30.561 40.9809 30.7097 40.9809 30.86C40.9795 32.0729 40.497 33.2358 39.6392 34.0933C38.7814 34.9508 37.6184 35.433 36.4055 35.4341Z" fill="#857FE5"/>
<path d="M31.8301 30.8922C31.8301 30.9067 31.8301 30.9225 31.8301 30.937C31.838 30.9212 31.8301 30.9067 31.8301 30.8922ZM32.9703 29.7177H34.622L36.4015 24.9722L38.1811 29.7177H39.8328C40.0981 29.7202 40.354 29.816 40.5558 29.9883C40.7575 30.1607 40.8921 30.3985 40.9361 30.6602C40.9313 30.5921 40.9202 30.5246 40.9031 30.4585L37.8937 22.4176C37.8117 22.1999 37.6654 22.0125 37.4742 21.8801C37.2829 21.7478 37.0559 21.6768 36.8234 21.6768H35.9995C35.7669 21.6768 35.5399 21.7478 35.3487 21.8801C35.1575 22.0125 35.0111 22.1999 34.9291 22.4176L31.9092 30.4585C31.8919 30.524 31.8813 30.5912 31.8775 30.6588C31.9215 30.3975 32.056 30.16 32.2575 29.988C32.459 29.8159 32.7146 29.7202 32.9795 29.7177H32.9703ZM40.973 30.9436C40.973 30.9264 40.973 30.9119 40.973 30.8961C40.9769 30.9067 40.973 30.9225 40.973 30.9436Z" fill="#ADA9EE"/>
<path d="M36.817 21.6752C37.0495 21.6753 37.2765 21.7462 37.4678 21.8786C37.659 22.0109 37.8053 22.1984 37.8873 22.416L38.2709 23.4376C38.7507 23.1273 39.1453 22.702 39.4188 22.2004C39.6923 21.6987 39.836 21.1367 39.8369 20.5653C39.8268 20.2688 39.702 19.9877 39.4886 19.7815C39.2753 19.5752 38.9901 19.46 38.6934 19.46C38.3967 19.46 38.1115 19.5752 37.8982 19.7815C37.6848 19.9877 37.5599 20.2688 37.5499 20.5653C37.5497 20.7719 37.4937 20.9747 37.3876 21.152C37.2815 21.3293 37.1294 21.4746 36.9475 21.5724C36.8415 21.6238 36.728 21.658 36.6113 21.6739L36.817 21.6752Z" fill="#342AD5"/>
<path d="M20.3938 35.4341C19.1808 35.433 18.0179 34.9508 17.1601 34.0933C16.3023 33.2358 15.8198 32.0729 15.8184 30.86C15.8184 30.7097 15.848 30.561 15.9055 30.4221C15.963 30.2833 16.0472 30.1572 16.1535 30.0509C16.2597 29.9447 16.3859 29.8604 16.5247 29.8029C16.6635 29.7454 16.8123 29.7158 16.9625 29.7158H23.825C23.9753 29.7158 24.124 29.7454 24.2629 29.8029C24.4017 29.8604 24.5278 29.9447 24.6341 30.0509C24.7403 30.1572 24.8246 30.2833 24.8821 30.4221C24.9396 30.561 24.9692 30.7097 24.9692 30.86C24.9681 32.0732 24.4857 33.2363 23.6279 34.0941C22.7701 34.952 21.6069 35.4344 20.3938 35.4354V35.4341Z" fill="#857FE5"/>
<path d="M15.8184 30.8922C15.8197 30.9235 15.8228 30.9548 15.8276 30.9858C15.8315 30.9541 15.8184 30.9238 15.8184 30.8922ZM16.9586 29.7177H18.6142L20.3938 24.9722L22.1733 29.7177H23.825C24.0903 29.7202 24.3463 29.816 24.548 29.9883C24.7497 30.1607 24.8844 30.3985 24.9283 30.6602C24.9235 30.5921 24.9125 30.5246 24.8954 30.4585L21.882 22.4176C21.8 22.1999 21.6537 22.0125 21.4624 21.8801C21.2712 21.7478 21.0442 21.6768 20.8116 21.6768H19.9825C19.7499 21.6768 19.5229 21.7478 19.3317 21.8801C19.1405 22.0125 18.9941 22.1999 18.9121 22.4176L15.8922 30.4585L15.8856 30.4769C15.8663 30.5511 15.8548 30.6271 15.8513 30.7037C15.886 30.4328 16.0178 30.1836 16.2221 30.0023C16.4264 29.821 16.6894 29.7199 16.9625 29.7177H16.9586Z" fill="#ADA9EE"/>
<path d="M18.5289 23.4362L18.9112 22.4159C18.9932 22.1983 19.1395 22.0108 19.3308 21.8784C19.522 21.7461 19.749 21.6751 19.9816 21.6751H20.2215C19.9532 21.6375 19.7073 21.5047 19.5288 21.3009C19.3502 21.0972 19.2508 20.8361 19.2487 20.5652C19.2538 20.4117 19.228 20.2588 19.1728 20.1156C19.1176 19.9723 19.0341 19.8416 18.9273 19.7313C18.8206 19.621 18.6927 19.5333 18.5513 19.4734C18.41 19.4135 18.258 19.3827 18.1045 19.3828C17.9509 19.3829 17.799 19.4139 17.6577 19.4739C17.5164 19.534 17.3886 19.6218 17.282 19.7323C17.1754 19.8427 17.092 19.9735 17.037 20.1168C16.982 20.2601 16.9563 20.413 16.9616 20.5665C16.9631 21.1375 17.1073 21.6991 17.381 22.2003C17.6547 22.7014 18.0493 23.1263 18.5289 23.4362ZM35.4017 21.1069C35.1078 20.5851 34.6779 20.1527 34.1576 19.8561C33.6374 19.5594 33.0464 19.4095 32.4476 19.4223H24.35C23.7522 19.4104 23.1622 19.5608 22.643 19.8574C22.1238 20.1541 21.6947 20.5859 21.4013 21.1069C21.3234 21.2502 21.2156 21.375 21.0853 21.4731C20.955 21.5711 20.8052 21.64 20.6459 21.6751H20.8041C21.0367 21.6751 21.2637 21.7461 21.4549 21.8784C21.6461 22.0108 21.7925 22.1983 21.8745 22.4159L22.2541 23.4296C22.7416 23.1219 23.143 22.6956 23.4207 22.1905C23.521 22.0358 23.66 21.9101 23.824 21.8259C23.988 21.7417 24.1712 21.702 24.3553 21.7107H32.4529C32.637 21.702 32.8202 21.7417 32.9842 21.8259C33.1482 21.9101 33.2872 22.0358 33.3875 22.1905C33.6616 22.698 34.0598 23.1279 34.5448 23.4401L34.9284 22.4172C35.0104 22.1996 35.1568 22.0121 35.348 21.8797C35.5392 21.7474 35.7662 21.6765 35.9988 21.6764H36.2071C36.0363 21.6509 35.8738 21.5863 35.7321 21.4878C35.5903 21.3893 35.4732 21.2594 35.3898 21.1083L35.4017 21.1069Z" fill="#342AD5"/>
<path d="M24.9609 30.9386C24.9609 30.9214 24.9609 30.9069 24.9609 30.8911C24.9679 30.9069 24.9609 30.9227 24.9609 30.9386Z" fill="#ADA9EE"/>
</svg>
