<svg width="15" height="17" viewBox="0 0 15 17" fill="none" xmlns="http://www.w3.org/2000/svg">
<path d="M7.3 9.35C7.07457 9.35 6.85837 9.43955 6.69896 9.59896C6.53955 9.75836 6.45 9.97457 6.45 10.2V12.75C6.45 12.9754 6.53955 13.1916 6.69896 13.351C6.85837 13.5104 7.07457 13.6 7.3 13.6C7.52543 13.6 7.74164 13.5104 7.90104 13.351C8.06045 13.1916 8.15 12.9754 8.15 12.75V10.2C8.15 9.97457 8.06045 9.75836 7.90104 9.59896C7.74164 9.43955 7.52543 9.35 7.3 9.35ZM11.55 5.95V4.25C11.55 3.12283 11.1022 2.04183 10.3052 1.2448C9.50817 0.447767 8.42717 0 7.3 0C6.17283 0 5.09183 0.447767 4.2948 1.2448C3.49777 2.04183 3.05 3.12283 3.05 4.25V5.95C2.3737 5.95 1.7251 6.21866 1.24688 6.69688C0.76866 7.1751 0.5 7.8237 0.5 8.5V14.45C0.5 15.1263 0.76866 15.7749 1.24688 16.2531C1.7251 16.7313 2.3737 17 3.05 17H11.55C12.2263 17 12.8749 16.7313 13.3531 16.2531C13.8313 15.7749 14.1 15.1263 14.1 14.45V8.5C14.1 7.8237 13.8313 7.1751 13.3531 6.69688C12.8749 6.21866 12.2263 5.95 11.55 5.95ZM4.75 4.25C4.75 3.5737 5.01866 2.9251 5.49688 2.44688C5.9751 1.96866 6.6237 1.7 7.3 1.7C7.9763 1.7 8.6249 1.96866 9.10312 2.44688C9.58134 2.9251 9.85 3.5737 9.85 4.25V5.95H4.75V4.25ZM12.4 14.45C12.4 14.6754 12.3104 14.8916 12.151 15.051C11.9916 15.2104 11.7754 15.3 11.55 15.3H3.05C2.82457 15.3 2.60837 15.2104 2.44896 15.051C2.28955 14.8916 2.2 14.6754 2.2 14.45V8.5C2.2 8.27457 2.28955 8.05836 2.44896 7.89896C2.60837 7.73955 2.82457 7.65 3.05 7.65H11.55C11.7754 7.65 11.9916 7.73955 12.151 7.89896C12.3104 8.05836 12.4 8.27457 12.4 8.5V14.45Z" fill="#979DAC"/>
</svg>
