<svg width="22" height="22" viewBox="0 0 22 22" fill="none" xmlns="http://www.w3.org/2000/svg">
<path d="M18.9062 11.3438V17.875C18.9062 18.3308 18.7252 18.768 18.4028 19.0903C18.0805 19.4127 17.6433 19.5938 17.1875 19.5938H4.125C3.66916 19.5938 3.23199 19.4127 2.90966 19.0903C2.58733 18.768 2.40625 18.3308 2.40625 17.875V4.8125C2.40625 4.35666 2.58733 3.91949 2.90966 3.59716C3.23199 3.27483 3.66916 3.09375 4.125 3.09375H10.6562C10.9298 3.09375 11.1921 3.2024 11.3855 3.3958C11.5789 3.58919 11.6875 3.8515 11.6875 4.125C11.6875 4.3985 11.5789 4.66081 11.3855 4.8542C11.1921 5.0476 10.9298 5.15625 10.6562 5.15625H4.46875V17.5312H16.8438V11.3438C16.8438 11.0702 16.9524 10.8079 17.1458 10.6145C17.3392 10.4211 17.6015 10.3125 17.875 10.3125C18.1485 10.3125 18.4108 10.4211 18.6042 10.6145C18.7976 10.8079 18.9062 11.0702 18.9062 11.3438ZM20.2812 5.15625C20.2812 5.83612 20.0796 6.50073 19.7019 7.06602C19.3242 7.63132 18.7873 8.07191 18.1592 8.33209C17.5311 8.59226 16.8399 8.66034 16.1731 8.5277C15.5063 8.39506 14.8938 8.06767 14.4131 7.58693C13.9323 7.10619 13.6049 6.49368 13.4723 5.82687C13.3397 5.16006 13.4077 4.4689 13.6679 3.84078C13.9281 3.21265 14.3687 2.67579 14.934 2.29807C15.4993 1.92036 16.1639 1.71875 16.8438 1.71875C17.7554 1.71875 18.6298 2.08091 19.2744 2.72557C19.9191 3.37023 20.2812 4.24457 20.2812 5.15625ZM18.2188 5.15625C18.2188 4.8843 18.1381 4.61846 17.987 4.39234C17.8359 4.16622 17.6212 3.98999 17.3699 3.88592C17.1187 3.78185 16.8422 3.75462 16.5755 3.80767C16.3088 3.86072 16.0638 3.99168 15.8715 4.18398C15.6792 4.37628 15.5482 4.62128 15.4952 4.888C15.4421 5.15472 15.4693 5.43119 15.5734 5.68244C15.6775 5.93369 15.8537 6.14843 16.0798 6.29952C16.306 6.45061 16.5718 6.53125 16.8438 6.53125C17.2084 6.53125 17.5582 6.38638 17.816 6.12852C18.0739 5.87066 18.2188 5.52092 18.2188 5.15625Z" fill="black"/>
</svg>
