<svg width="74" height="8" viewBox="0 0 74 8" fill="none" xmlns="http://www.w3.org/2000/svg">
<path d="M52 8C54.2091 8 56 6.20914 56 4C56 1.79086 54.2091 0 52 0C49.7909 0 48 1.79086 48 4C48 6.20914 49.7909 8 52 8Z" fill="#535353"/>
<path d="M70 8C72.2091 8 74 6.20914 74 4C74 1.79086 72.2091 0 70 0C67.7909 0 66 1.79086 66 4C66 6.20914 67.7909 8 70 8Z" fill="#535353"/>
<path d="M34 0H4C1.79086 0 0 1.79086 0 4C0 6.20914 1.79086 8 4 8H34C36.2091 8 38 6.20914 38 4C38 1.79086 36.2091 0 34 0Z" fill="white"/>
</svg>
