<svg width="14" height="16" viewBox="0 0 14 16" fill="none" xmlns="http://www.w3.org/2000/svg">
<path d="M6.756 8.90493C6.5486 8.90493 6.3497 8.98732 6.20304 9.13397C6.05639 9.28063 5.974 9.47953 5.974 9.68693V12.0329C5.974 12.2403 6.05639 12.4392 6.20304 12.5859C6.3497 12.7325 6.5486 12.8149 6.756 12.8149C6.9634 12.8149 7.1623 12.7325 7.30896 12.5859C7.45561 12.4392 7.538 12.2403 7.538 12.0329V9.68793C7.53813 9.58515 7.518 9.48336 7.47876 9.38837C7.43952 9.29337 7.38194 9.20705 7.30931 9.13433C7.23668 9.06161 7.15043 9.00392 7.05549 8.96455C6.96055 8.92519 6.85878 8.90493 6.756 8.90493ZM10.666 5.77693V4.21493C10.666 3.17794 10.2541 2.18341 9.52079 1.45014C8.78752 0.716877 7.793 0.304932 6.756 0.304932C5.719 0.304932 4.72448 0.716877 3.99121 1.45014C3.25795 2.18341 2.846 3.17794 2.846 4.21493V5.77893C2.2238 5.77893 1.62709 6.0261 1.18713 6.46606C0.747167 6.90602 0.5 7.50273 0.5 8.12493V13.5989C0.5 14.2211 0.747167 14.8178 1.18713 15.2578C1.62709 15.6978 2.2238 15.9449 2.846 15.9449H10.666C11.2882 15.9449 11.8849 15.6978 12.3249 15.2578C12.7648 14.8178 13.012 14.2211 13.012 13.5989V8.12493C13.012 7.81677 12.9513 7.51162 12.8333 7.22692C12.7154 6.94223 12.5425 6.68357 12.3245 6.46571C12.1066 6.24785 11.8478 6.07506 11.5631 5.95722C11.2783 5.83938 10.9732 5.7788 10.665 5.77893L10.666 5.77693ZM4.41 4.21493C4.41 3.59273 4.65717 2.99602 5.09713 2.55606C5.53709 2.1161 6.1338 1.86893 6.756 1.86893C7.3782 1.86893 7.97491 2.1161 8.41487 2.55606C8.85483 2.99602 9.102 3.59273 9.102 4.21493V5.77893H4.41V4.21493ZM11.448 13.5979C11.448 13.8053 11.3656 14.0042 11.219 14.1509C11.0723 14.2975 10.8734 14.3799 10.666 14.3799H2.846C2.6386 14.3799 2.4397 14.2975 2.29304 14.1509C2.14639 14.0042 2.064 13.8053 2.064 13.5979V8.12493C2.064 7.91753 2.14639 7.71863 2.29304 7.57197C2.4397 7.42532 2.6386 7.34293 2.846 7.34293H10.666C10.8734 7.34293 11.0723 7.42532 11.219 7.57197C11.3656 7.71863 11.448 7.91753 11.448 8.12493V13.5979Z" fill="#979DAC"/>
</svg>
