<svg width="48" height="48" viewBox="0 0 48 48" fill="none" xmlns="http://www.w3.org/2000/svg">
<path d="M0 24C0 17.6348 2.52856 11.5302 7.02943 7.0293C11.5303 2.52842 17.6348 0 24 0C30.3652 0 36.4697 2.52842 40.9706 7.0293C45.4714 11.5302 48 17.6348 48 24C48 30.3652 45.4714 36.4698 40.9706 40.9707C36.4697 45.4716 30.3652 48 24 48C17.6348 48 11.5303 45.4716 7.02943 40.9707C2.52856 36.4698 0 30.3652 0 24Z" fill="#F4EDFF"/>
<path d="M30.5633 26.634L26.0013 24L30.5633 21.366C30.678 21.3008 30.7786 21.2136 30.8594 21.1094C30.9402 21.0051 30.9996 20.886 31.0341 20.7587C31.0687 20.6314 31.0777 20.4986 31.0607 20.3678C31.0437 20.237 31.001 20.1109 30.9351 19.9967C30.8692 19.8825 30.7813 19.7824 30.6765 19.7023C30.5718 19.6222 30.4522 19.5636 30.3247 19.5299C30.1972 19.4962 30.0643 19.488 29.9336 19.5059C29.8029 19.5238 29.6771 19.5673 29.5633 19.634L25.0013 22.268V17C25.0013 16.7348 24.896 16.4804 24.7084 16.2929C24.5209 16.1054 24.2666 16 24.0013 16C23.7361 16 23.4818 16.1054 23.2942 16.2929C23.1067 16.4804 23.0013 16.7348 23.0013 17V22.268L18.4393 19.634C18.3256 19.5673 18.1997 19.5238 18.0691 19.5059C17.9384 19.488 17.8055 19.4962 17.678 19.5299C17.5505 19.5636 17.4309 19.6222 17.3262 19.7023C17.2214 19.7824 17.1335 19.8825 17.0676 19.9967C17.0016 20.1109 16.9589 20.237 16.9419 20.3678C16.9249 20.4986 16.934 20.6314 16.9685 20.7587C17.0031 20.886 17.0625 21.0051 17.1433 21.1094C17.2241 21.2136 17.3247 21.3008 17.4393 21.366L22.0013 24L17.4393 26.634C17.2115 26.7676 17.0458 26.9858 16.9783 27.2411C16.9108 27.4964 16.947 27.768 17.0791 27.9967C17.2111 28.2254 17.4282 28.3926 17.6831 28.4617C17.9379 28.5309 18.2098 28.4965 18.4393 28.366L23.0013 25.732V31C23.0013 31.2652 23.1067 31.5196 23.2942 31.7071C23.4818 31.8946 23.7361 32 24.0013 32C24.2666 32 24.5209 31.8946 24.7084 31.7071C24.896 31.5196 25.0013 31.2652 25.0013 31V25.732L29.5633 28.366C29.6771 28.4327 29.8029 28.4762 29.9336 28.4941C30.0643 28.512 30.1972 28.5038 30.3247 28.4701C30.4522 28.4364 30.5718 28.3778 30.6765 28.2977C30.7813 28.2176 30.8692 28.1175 30.9351 28.0033C31.001 27.8891 31.0437 27.763 31.0607 27.6322C31.0777 27.5014 31.0687 27.3686 31.0341 27.2413C30.9996 27.114 30.9402 26.9949 30.8594 26.8906C30.7786 26.7864 30.678 26.6992 30.5633 26.634Z" fill="#700BE9"/>
</svg>
