<svg width="14" height="14" viewBox="0 0 14 14" fill="none" xmlns="http://www.w3.org/2000/svg">
<path d="M11.7892 7.81491C11.6455 7.80497 11.5034 7.77949 11.3652 7.73891C11.0833 7.6767 10.8062 7.59415 10.5362 7.49191C10.2425 7.38503 9.91971 7.39055 9.62986 7.50742C9.34001 7.62428 9.10363 7.84422 8.96621 8.12491L8.82721 8.40991C8.21025 8.06702 7.64329 7.64104 7.14221 7.14391C6.64516 6.64314 6.21918 6.07652 5.87621 5.45991L6.14221 5.28291C6.4229 5.14549 6.64284 4.90911 6.7597 4.61926C6.87657 4.32941 6.88209 4.00658 6.77521 3.71291C6.67468 3.44233 6.59216 3.16539 6.52821 2.88391C6.49621 2.74491 6.47121 2.59891 6.45221 2.45291C6.37536 2.00714 6.14199 1.60342 5.79407 1.31435C5.44615 1.02527 5.00651 0.869804 4.55421 0.875905H2.65421C2.38123 0.873336 2.11091 0.929621 1.86164 1.04093C1.61237 1.15223 1.39001 1.31595 1.20971 1.52093C1.02941 1.7259 0.895393 1.96732 0.81679 2.22875C0.738188 2.49019 0.716845 2.76548 0.754213 3.03591C1.09169 5.68808 2.3031 8.15224 4.19711 10.0392C6.09113 11.9261 8.5598 13.1283 11.2132 13.4559H11.4542C11.7044 13.4566 11.9523 13.4077 12.1835 13.3121C12.4147 13.2164 12.6247 13.076 12.8013 12.8988C12.978 12.7216 13.1178 12.5111 13.2127 12.2796C13.3076 12.0481 13.3557 11.8001 13.3542 11.5499V9.64991C13.346 9.21018 13.1856 8.7869 12.9002 8.45227C12.6148 8.11763 12.2221 7.89237 11.7892 7.81491ZM12.1062 11.6149C12.1062 11.7048 12.087 11.7937 12.0499 11.8756C12.0128 11.9575 11.9587 12.0305 11.8912 12.0899C11.8207 12.1512 11.738 12.197 11.6486 12.2242C11.5591 12.2515 11.465 12.2595 11.3722 12.2479C9.00002 11.9448 6.79634 10.8603 5.10903 9.16556C3.42172 7.47083 2.34689 5.2624 2.05421 2.88891C2.04411 2.79621 2.05291 2.70243 2.08007 2.61323C2.10722 2.52402 2.15218 2.44125 2.21221 2.36991C2.27158 2.30239 2.34465 2.2483 2.42655 2.21123C2.50845 2.17416 2.59731 2.15496 2.68721 2.15491H4.58721C4.73441 2.15163 4.87814 2.19976 4.99367 2.29102C5.10921 2.38228 5.18932 2.51096 5.22021 2.65491C5.24555 2.82824 5.27721 2.99924 5.31521 3.16791C5.38829 3.50153 5.48555 3.8294 5.60621 4.14891L4.72021 4.56091C4.64444 4.59569 4.57629 4.64509 4.51967 4.70628C4.46304 4.76748 4.41907 4.83926 4.39026 4.91749C4.36146 4.99573 4.34839 5.07889 4.35182 5.16219C4.35524 5.24549 4.37509 5.3273 4.41021 5.40291C5.32197 7.35562 6.89208 8.92503 8.84521 9.83591C9.00132 9.89584 9.17418 9.89533 9.32993 9.83448C9.48568 9.77362 9.6131 9.6568 9.68721 9.5069L10.0802 8.62091C10.4074 8.73786 10.7413 8.83504 11.0802 8.91191C11.2489 8.94991 11.4199 8.98157 11.5932 9.0069C11.7372 9.0378 11.8658 9.11791 11.9571 9.23345C12.0484 9.34898 12.0965 9.49271 12.0932 9.6399L12.1062 11.6149Z" fill="#979DAC"/>
</svg>
