<svg width="54" height="53" viewBox="0 0 54 53" fill="none" xmlns="http://www.w3.org/2000/svg">
<path d="M53.25 26.25C53.25 11.7525 41.4975 0 27 0C12.5025 0 0.75 11.7525 0.75 26.25C0.75 40.7475 12.5025 52.5 27 52.5C41.4975 52.5 53.25 40.7475 53.25 26.25Z" fill="#F5F0FF"/>
<path d="M34.3647 26.4287C33.3535 27.3437 32.0403 27.8536 30.6765 27.8605C30.379 27.8595 30.0821 27.834 29.7888 27.7842C29.759 27.7579 29.7232 27.7388 29.6934 27.7114C30.6991 28.5449 31.5086 29.59 32.0642 30.7721C32.6198 31.9543 32.9079 33.2445 32.9078 34.5507C32.9078 34.8466 32.7903 35.1303 32.581 35.3396C32.3718 35.5488 32.088 35.6663 31.7922 35.6663H38.4835C38.7794 35.6663 39.0632 35.5488 39.2724 35.3396C39.4816 35.1303 39.5992 34.8466 39.5992 34.5507C39.598 32.8386 39.1039 31.163 38.1759 29.7242C37.2478 28.2853 35.9251 27.1442 34.3659 26.4371L34.3647 26.4287Z" fill="#342AD5"/>
<path d="M23.9879 27.8546C22.8851 27.8546 21.8071 27.5276 20.8901 26.9149C19.9732 26.3023 19.2586 25.4314 18.8365 24.4126C18.4145 23.3938 18.3041 22.2727 18.5192 21.1911C18.7344 20.1095 19.2654 19.116 20.0452 18.3362C20.825 17.5564 21.8185 17.0254 22.9001 16.8103C23.9817 16.5951 25.1028 16.7055 26.1216 17.1276C27.1404 17.5496 28.0112 18.2642 28.6239 19.1812C29.2366 20.0981 29.5636 21.1761 29.5636 22.2789C29.5636 23.7576 28.9761 25.1759 27.9305 26.2215C26.8848 27.2672 25.4666 27.8546 23.9879 27.8546Z" fill="#ADA9EE"/>
<path d="M23.9879 27.8546C22.8851 27.8546 21.8071 27.5276 20.8901 26.9149C19.9732 26.3023 19.2586 25.4314 18.8365 24.4126C18.4145 23.3938 18.3041 22.2727 18.5192 21.1911C18.7344 20.1095 19.2654 19.116 20.0452 18.3362C20.825 17.5564 21.8185 17.0254 22.9001 16.8103C23.9817 16.5951 25.1028 16.7055 26.1216 17.1276C27.1404 17.5496 28.0112 18.2642 28.6239 19.1812C29.2366 20.0981 29.5636 21.1761 29.5636 22.2789C29.5636 23.7576 28.9761 25.1759 27.9305 26.2215C26.8848 27.2672 25.4666 27.8546 23.9879 27.8546Z" fill="#ADA9EE"/>
<path d="M27.676 26.4287C26.666 27.3453 25.3511 27.8531 23.9872 27.8531C22.6234 27.8531 21.3084 27.3453 20.2985 26.4287C18.7389 27.1363 17.4161 28.2781 16.4882 29.7175C15.5604 31.157 15.0667 32.8333 15.0664 34.5459C15.0664 34.8418 15.1839 35.1256 15.3932 35.3348C15.6024 35.544 15.8861 35.6616 16.182 35.6616H31.7936C31.9401 35.6616 32.0852 35.6327 32.2206 35.5766C32.3559 35.5206 32.4789 35.4384 32.5825 35.3348C32.6861 35.2312 32.7683 35.1082 32.8243 34.9729C32.8804 34.8375 32.9092 34.6924 32.9092 34.5459C32.9081 32.8338 32.414 31.1582 31.486 29.7194C30.5579 28.2806 29.2352 27.1394 27.676 26.4323V26.4287Z" fill="#857FE5"/>
<path d="M30.6749 16.7033C29.4665 16.7083 28.2931 17.1089 27.334 17.844C28.0557 18.3972 28.6369 19.1125 29.0307 19.9321C29.0772 20.0335 29.125 20.1337 29.1667 20.2387C29.276 20.5096 29.363 20.7889 29.4268 21.074C29.4411 21.1408 29.4519 21.2112 29.465 21.2804C29.5285 21.6092 29.5621 21.943 29.5652 22.2779C29.5632 22.6213 29.5284 22.9637 29.4614 23.3004C29.4519 23.3494 29.4471 23.4007 29.4364 23.4484C29.3735 23.7255 29.2889 23.9971 29.1834 24.261C29.1428 24.366 29.1047 24.471 29.0569 24.5736C28.963 24.7727 28.8578 24.9663 28.7419 25.1535C28.4525 25.6291 28.0933 26.0587 27.6764 26.4278C28.4425 26.7748 29.1552 27.2292 29.7931 27.7773C30.0864 27.827 30.3834 27.8526 30.6809 27.8536C32.1596 27.8536 33.5778 27.2662 34.6235 26.2205C35.6692 25.1749 36.2566 23.7567 36.2566 22.2779C36.2566 20.7991 35.6692 19.3809 34.6235 18.3352C33.5778 17.2896 32.1596 16.7021 30.6809 16.7021L30.6749 16.7033Z" fill="#5C54DD"/>
</svg>
