<svg width="111" height="104" viewBox="0 0 111 104" fill="none" xmlns="http://www.w3.org/2000/svg">
<rect x="7.1665" y="1" width="102" height="102" rx="51" stroke="#EAB308" stroke-width="2" stroke-dasharray="8 4"/>
<circle cx="50.167" cy="53" r="50" fill="#EAB308"/>
<path d="M68.7284 47.1263L67.042 36.1667C54.792 36.1667 48.667 30.0417 48.667 30.0417C48.667 30.0417 42.542 36.1667 30.292 36.1667L28.6056 47.1263C27.9023 51.6915 28.6238 56.3624 30.6716 60.5026C32.7194 64.6428 35.994 68.0509 40.0491 70.2625L48.667 74.9583L57.2849 70.2625C61.34 68.0509 64.6146 64.6428 66.6625 60.5026C68.7103 56.3624 69.4317 51.6915 68.7284 47.1263ZM58.2772 47.8184L46.0271 60.0684C45.6443 60.4512 45.1251 60.6662 44.5837 60.6662C44.0423 60.6662 43.5231 60.4512 43.1402 60.0684L39.0569 55.9851C38.8619 55.7968 38.7064 55.5715 38.5994 55.3224C38.4924 55.0733 38.436 54.8054 38.4337 54.5343C38.4313 54.2632 38.483 53.9944 38.5856 53.7435C38.6883 53.4925 38.8399 53.2646 39.0316 53.0729C39.2233 52.8812 39.4512 52.7296 39.7022 52.6269C39.9531 52.5243 40.2219 52.4726 40.493 52.475C40.7641 52.4773 41.032 52.5337 41.2811 52.6407C41.5302 52.7477 41.7555 52.9032 41.9438 53.0982L44.5837 55.7381L55.3902 44.9315C55.7753 44.5596 56.291 44.3538 56.8263 44.3585C57.3617 44.3631 57.8737 44.5779 58.2523 44.9564C58.6308 45.3349 58.8455 45.847 58.8502 46.3823C58.8548 46.9177 58.6491 47.4334 58.2772 47.8184Z" fill="white"/>
</svg>
