<svg width="54" height="53" viewBox="0 0 54 53" fill="none" xmlns="http://www.w3.org/2000/svg">
<path d="M53.25 26.75C53.25 12.2525 41.4975 0.5 27 0.5C12.5025 0.5 0.75 12.2525 0.75 26.75C0.75 41.2475 12.5025 53 27 53C41.4975 53 53.25 41.2475 53.25 26.75Z" fill="#F5F0FF"/>
<path d="M26.9986 39.0313C26.7499 39.031 26.5075 38.953 26.3053 38.8082L21.9502 35.6976C20.5605 34.703 19.4277 33.3917 18.6457 31.8722C17.8636 30.3527 17.4548 28.6688 17.4531 26.9599V18.0623C17.453 17.8847 17.4926 17.7094 17.5689 17.549C17.6453 17.3886 17.7564 17.2473 17.8943 17.1354C18.0322 17.0235 18.1933 16.9437 18.3659 16.902C18.5386 16.8603 18.7183 16.8576 18.8921 16.8942C20.1672 17.1623 21.4837 17.1664 22.7605 16.9064C24.0373 16.6464 25.2473 16.1278 26.3161 15.3824C26.5163 15.2428 26.7545 15.168 26.9986 15.168C27.2427 15.168 27.4809 15.2428 27.6811 15.3824C28.7498 16.1278 29.9599 16.6464 31.2367 16.9064C32.5134 17.1664 33.8299 17.1623 35.1051 16.8942C35.2788 16.8576 35.4586 16.8603 35.6312 16.902C35.8038 16.9437 35.965 17.0235 36.1029 17.1354C36.2407 17.2473 36.3519 17.3886 36.4282 17.549C36.5045 17.7094 36.5441 17.8847 36.544 18.0623V26.9599C36.5423 28.6688 36.1335 30.3527 35.3515 31.8722C34.5694 33.3917 33.4367 34.703 32.0469 35.6976L27.6918 38.8082C27.4896 38.953 27.2473 39.031 26.9986 39.0313Z" fill="#857FE5"/>
<path d="M25.6267 30.3211C25.3103 30.3211 25.0068 30.1953 24.7831 29.9715L22.874 28.0624C22.7601 27.9524 22.6692 27.8207 22.6066 27.6751C22.5441 27.5296 22.5112 27.373 22.5098 27.2146C22.5084 27.0561 22.5386 26.899 22.5986 26.7524C22.6586 26.6057 22.7472 26.4725 22.8592 26.3605C22.9713 26.2485 23.1045 26.1599 23.2511 26.0999C23.3978 26.0399 23.5549 26.0097 23.7133 26.0111C23.8717 26.0124 24.0283 26.0453 24.1739 26.1079C24.3195 26.1704 24.4511 26.2613 24.5612 26.3753L25.6267 27.4408L28.8399 24.2275C28.95 24.1136 29.0817 24.0227 29.2272 23.9602C29.3728 23.8976 29.5294 23.8647 29.6878 23.8633C29.8462 23.8619 30.0034 23.8921 30.15 23.9521C30.2966 24.0121 30.4299 24.1007 30.5419 24.2128C30.6539 24.3248 30.7425 24.458 30.8025 24.6046C30.8625 24.7513 30.8927 24.9084 30.8913 25.0668C30.8899 25.2253 30.857 25.3818 30.7945 25.5274C30.732 25.673 30.6411 25.8046 30.5271 25.9147L26.4703 29.9715C26.2466 30.1953 25.9431 30.3211 25.6267 30.3211Z" fill="#342AD5"/>
</svg>
