<svg width="16" height="15" viewBox="0 0 16 15" fill="none" xmlns="http://www.w3.org/2000/svg">
<path d="M5.892 11.252H10.284M11.748 14.18H4.428C3.65145 14.18 2.9067 13.8715 2.35759 13.3224C1.80848 12.7733 1.5 12.0286 1.5 11.252V6.64601C1.50075 6.14321 1.63096 5.64909 1.8781 5.21122C2.12523 4.77335 2.48095 4.4065 2.911 4.14601L6.57 1.92201C7.0276 1.6447 7.55243 1.49808 8.0875 1.49808C8.62257 1.49808 9.1474 1.6447 9.605 1.92201L13.265 4.14001C13.695 4.4005 14.0508 4.76735 14.2979 5.20522C14.545 5.64309 14.6752 6.13721 14.676 6.64001V11.252C14.676 11.6365 14.6003 12.0173 14.4531 12.3725C14.306 12.7277 14.0903 13.0505 13.8184 13.3224C13.5465 13.5943 13.2237 13.81 12.8685 13.9571C12.5133 14.1043 12.1325 14.18 11.748 14.18Z" stroke="#700BE9" stroke-width="1.2" stroke-linecap="round" stroke-linejoin="round"/>
</svg>
