<svg width="52" height="52" viewBox="0 0 52 52" fill="none" xmlns="http://www.w3.org/2000/svg">
<path d="M52 26C52 11.8477 40.5273 0.375 26.375 0.375C12.2227 0.375 0.75 11.8477 0.75 26C0.75 40.1523 12.2227 51.625 26.375 51.625C40.5273 51.625 52 40.1523 52 26Z" fill="#F5F0FF"/>
<path d="M36.8556 32.5058C36.8556 32.7502 36.7787 32.9885 36.6358 33.1868C36.4928 33.3851 36.2911 33.5335 36.0592 33.6108C35.8273 33.6881 35.5769 33.6905 35.3436 33.6176C35.1102 33.5447 34.9057 33.4002 34.7591 33.2046C33.7799 31.9056 32.5131 30.851 31.0581 30.1235C29.6031 29.3961 27.9994 29.0154 26.3727 29.0115H21.7136C21.4047 29.0115 21.1084 28.8887 20.89 28.6703C20.6715 28.4519 20.5488 28.1556 20.5488 27.8467V20.858C20.5488 20.5491 20.6715 20.2529 20.89 20.0344C21.1084 19.816 21.4047 19.6933 21.7136 19.6933H26.3727C27.9994 19.6893 29.6031 19.3087 31.0581 18.5812C32.5131 17.8537 33.7799 16.7991 34.7591 15.5001C34.9057 15.3045 35.1102 15.1601 35.3436 15.0872C35.5769 15.0143 35.8273 15.0166 36.0592 15.094C36.2911 15.1713 36.4928 15.3196 36.6358 15.5179C36.7787 15.7162 36.8556 15.9545 36.8556 16.199V32.5058Z" fill="#857FE5"/>
<path d="M22.8793 29.0117H19.3849C18.4582 29.0117 17.5694 28.6435 16.9141 27.9882C16.2588 27.3329 15.8906 26.4441 15.8906 25.5174V23.1878C15.8906 22.2611 16.2588 21.3723 16.9141 20.717C17.5694 20.0616 18.4582 19.6935 19.3849 19.6935H22.8793V29.0117ZM35.6918 34.8355C35.3828 34.8355 35.0866 34.7128 34.8681 34.4944C34.6497 34.2759 34.527 33.9797 34.527 33.6708V15.0344C34.527 14.7255 34.6497 14.4292 34.8681 14.2108C35.0866 13.9923 35.3828 13.8696 35.6918 13.8696C36.0007 13.8696 36.2969 13.9923 36.5154 14.2108C36.7338 14.4292 36.8565 14.7255 36.8565 15.0344V33.6708C36.8565 33.9797 36.7338 34.2759 36.5154 34.4944C36.2969 34.7128 36.0007 34.8355 35.6918 34.8355Z" fill="#342AD5"/>
<path d="M22.8808 29.0117H19.9502L17.1548 35.5414C17.0789 35.7183 17.0481 35.9112 17.0651 36.1029C17.082 36.2946 17.1462 36.4792 17.2519 36.64C17.3576 36.8008 17.5015 36.933 17.6707 37.0246C17.8399 37.1163 18.0292 37.1645 18.2217 37.1651H22.8808C23.1087 37.1651 23.3316 37.0982 23.5219 36.9727C23.7121 36.8473 23.8614 36.6688 23.9512 36.4593L27.1229 29.0571C26.8748 29.0385 26.6267 29.0117 26.3751 29.0117H22.8808Z" fill="#ADA9EE"/>
</svg>
