<svg width="104" height="104" viewBox="0 0 104 104" fill="none" xmlns="http://www.w3.org/2000/svg">
<g clip-path="url(#clip0_4007_1104)">
<rect x="6" y="8.5" width="95" height="95" rx="47.5" fill="#EF4444"/>
<path d="M67.5 36H39.5C38.9696 36 38.4609 35.7893 38.0858 35.4142C37.7107 35.0391 37.5 34.5304 37.5 34C37.5 33.4696 37.7107 32.9609 38.0858 32.5858C38.4609 32.2107 38.9696 32 39.5 32H67.5C68.0304 32 68.5391 32.2107 68.9142 32.5858C69.2893 32.9609 69.5 33.4696 69.5 34C69.5 34.5304 69.2893 35.0391 68.9142 35.4142C68.5391 35.7893 68.0304 36 67.5 36Z" fill="white"/>
<path d="M71.5 42H35.5C34.9696 42 34.4609 41.7893 34.0858 41.4142C33.7107 41.0391 33.5 40.5304 33.5 40C33.5 39.4696 33.7107 38.9609 34.0858 38.5858C34.4609 38.2107 34.9696 38 35.5 38H71.5C72.0304 38 72.5391 38.2107 72.9142 38.5858C73.2893 38.9609 73.5 39.4696 73.5 40C73.5 40.5304 73.2893 41.0391 72.9142 41.4142C72.5391 41.7893 72.0304 42 71.5 42Z" fill="white"/>
<path d="M73.8913 80H33.1088C31.6217 79.9983 30.1961 79.4069 29.1446 78.3554C28.0931 77.3039 27.5017 75.8783 27.5 74.3913V49.6087C27.5017 48.1217 28.0931 46.6961 29.1446 45.6446C30.1961 44.5931 31.6217 44.0017 33.1088 44H73.8913C75.3783 44.0017 76.8039 44.5931 77.8554 45.6446C78.9069 46.6961 79.4983 48.1217 79.5 49.6087V74.3913C79.4983 75.8783 78.9069 77.3039 77.8554 78.3554C76.8039 79.4069 75.3783 79.9983 73.8913 80V80Z" fill="white"/>
<rect x="6" y="8.5" width="95" height="95" rx="47.5" stroke="#EF4444"/>
</g>
<rect x="1" y="1" width="102" height="102" rx="51" stroke="#EF4444" stroke-width="2" stroke-dasharray="8 4"/>
<defs>
<clipPath id="clip0_4007_1104">
<rect width="101" height="96" fill="white" transform="translate(3 8)"/>
</clipPath>
</defs>
</svg>
