<svg width="14" height="14" viewBox="0 0 14 14" fill="none" xmlns="http://www.w3.org/2000/svg">
<path d="M9.07878 7.61087C9.69508 7.12593 10.1449 6.46096 10.3657 5.70847C10.5865 4.95598 10.5672 4.15338 10.3107 3.41233C10.0541 2.67128 9.57288 2.02863 8.93404 1.57378C8.29521 1.11894 7.53049 0.874512 6.74628 0.874512C5.96206 0.874512 5.19734 1.11894 4.55851 1.57378C3.91968 2.02863 3.43849 2.67128 3.1819 3.41233C2.92531 4.15338 2.90607 4.95598 3.12685 5.70847C3.34764 6.46096 3.79747 7.12593 4.41378 7.61087C3.35775 8.03393 2.43633 8.73565 1.74774 9.6412C1.05916 10.5467 0.629222 11.6222 0.503776 12.7529C0.494715 12.8354 0.501999 12.9189 0.525213 12.9986C0.548426 13.0784 0.587115 13.1527 0.639069 13.2175C0.691024 13.2823 0.755226 13.3362 0.828012 13.3761C0.900798 13.4161 0.98074 13.4413 1.06328 13.4504C1.14581 13.4594 1.22932 13.4521 1.30905 13.4289C1.38877 13.4057 1.46313 13.367 1.5279 13.3151C1.59267 13.2631 1.64657 13.1989 1.68653 13.1261C1.72649 13.0534 1.75172 12.9734 1.76078 12.8909C1.89379 11.6576 2.47789 10.517 3.40081 9.68831C4.32374 8.85958 5.52038 8.40117 6.76078 8.40117C8.00117 8.40117 9.19781 8.85958 10.1207 9.68831C11.0437 10.517 11.6278 11.6576 11.7608 12.8909C11.7781 13.0453 11.8519 13.1878 11.968 13.291C12.0842 13.3943 12.2344 13.4508 12.3898 13.4499H12.4588C12.6236 13.4308 12.7742 13.3473 12.8777 13.2177C12.9813 13.0881 13.0295 12.9228 13.0118 12.7579C12.8858 11.6238 12.4536 10.5455 11.7615 9.63839C11.0693 8.73131 10.1433 8.02973 9.08278 7.60887L9.07878 7.61087ZM6.74578 7.16387C6.24831 7.16387 5.76202 7.01634 5.34841 6.73995C4.9348 6.46355 4.61245 6.0707 4.42212 5.61109C4.2318 5.15147 4.18205 4.64574 4.27917 4.15785C4.3763 3.66996 4.61593 3.22183 4.96776 2.87014C5.31959 2.51845 5.76781 2.279 6.25574 2.18207C6.74367 2.08515 7.24938 2.13509 7.70892 2.3256C8.16846 2.51611 8.56118 2.83862 8.83741 3.25234C9.11364 3.66606 9.26097 4.15241 9.26078 4.64987C9.26051 5.31672 8.99542 5.95616 8.5238 6.4276C8.05217 6.89904 7.41262 7.16387 6.74578 7.16387Z" fill="#979DAC"/>
</svg>
