<svg width="24" height="24" viewBox="0 0 24 24" fill="none" xmlns="http://www.w3.org/2000/svg">
<path d="M17.25 9H16.375V7.57143C16.375 5.6 14.415 4 12 4C9.585 4 7.625 5.6 7.625 7.57143V9H6.75C5.7875 9 5 9.64286 5 10.4286V17.5714C5 18.3571 5.7875 19 6.75 19H17.25C18.2125 19 19 18.3571 19 17.5714V10.4286C19 9.64286 18.2125 9 17.25 9ZM9.375 7.57143C9.375 6.38571 10.5475 5.42857 12 5.42857C13.4525 5.42857 14.625 6.38571 14.625 7.57143V9H9.375V7.57143ZM17.25 17.5714H6.75V10.4286H17.25V17.5714ZM12 15.4286C12.9625 15.4286 13.75 14.7857 13.75 14C13.75 13.2143 12.9625 12.5714 12 12.5714C11.0375 12.5714 10.25 13.2143 10.25 14C10.25 14.7857 11.0375 15.4286 12 15.4286Z" fill="black"/>
<rect x="1" y="1" width="22" height="22" rx="1" stroke="black" stroke-width="2"/>
</svg>
